<svg width="149" height="71" viewBox="0 0 149 71" fill="none" xmlns="http://www.w3.org/2000/svg">
<path d="M11.416 71L0.76 60.344V10.904L11.416 0.247995H43.096L53.752 10.904V60.344L43.096 71H11.416ZM17.08 60.44H37.528L41.752 56.216V15.032L37.528 10.808H16.984L12.76 15.032L12.856 56.216L17.08 60.44ZM59.02 47.864V38.36H90.7V47.864H59.02ZM106.514 71L96.8177 61.4L104.69 53.432L111.794 60.44H132.53L136.754 56.216V40.568L132.146 44.792H107.09L96.4337 34.136V10.904L107.09 0.247995H138.194L148.85 10.904V60.344L138.194 71H106.514ZM112.658 34.232H131.474L136.754 28.952V15.032L132.53 10.808H112.658L108.434 15.032L108.53 30.008L112.658 34.232Z" fill="#12A2CF"/>
</svg>
