<svg width="181" height="180" viewBox="0 0 181 180" fill="none" xmlns="http://www.w3.org/2000/svg">
<g clip-path="url(#clip0)">
<path d="M90.244 0C40.615 0 0.244019 40.371 0.244019 90C0.244019 139.629 40.615 180 90.244 180C139.873 180 180.244 139.622 180.244 90C180.244 40.378 139.873 0 90.244 0ZM90.244 166.057C48.3114 166.057 14.1866 131.94 14.1866 90C14.1866 48.0604 48.3114 13.9426 90.244 13.9426C132.177 13.9426 166.301 48.0604 166.301 90C166.301 131.94 132.184 166.057 90.244 166.057Z" fill="#12A2CF"/>
<path d="M125.101 82.4013H97.2156V54.516C97.2156 50.6678 94.0993 47.5446 90.2441 47.5446C86.3889 47.5446 83.2726 50.6678 83.2726 54.516V82.4013H55.3874C51.5321 82.4013 48.4159 85.5246 48.4159 89.3728C48.4159 93.221 51.5321 96.3442 55.3874 96.3442H83.2726V124.229C83.2726 128.078 86.3889 131.201 90.2441 131.201C94.0993 131.201 97.2156 128.078 97.2156 124.229V96.3442H125.101C128.956 96.3442 132.072 93.221 132.072 89.3728C132.072 85.5246 128.956 82.4013 125.101 82.4013Z" fill="#12A2CF"/>
</g>
<defs>
<clipPath id="clip0">
<rect width="180" height="180" fill="white" transform="translate(0.244019)"/>
</clipPath>
</defs>
</svg>
