<svg width="211" height="211" viewBox="0 0 211 211" fill="none" xmlns="http://www.w3.org/2000/svg">
<path d="M47.7285 57.1736H128.158V69.5369H47.7285V57.1736Z" fill="#12A2CF"/>
<path d="M47.7285 81.9001H128.158V94.2634H47.7285V81.9001Z" fill="#12A2CF"/>
<path d="M47.7285 106.627H128.158V118.99H47.7285V106.627Z" fill="#12A2CF"/>
<path d="M180.629 136.31C174.299 129.98 166.495 126.001 158.312 124.369V0H45.9235L17.5762 28.3478V181.825H108.417C110.561 187.91 114.057 193.488 118.754 198.185C127.018 206.449 138.005 211 149.692 211C161.378 211 172.366 206.449 180.629 198.185C197.688 181.126 197.688 153.369 180.629 136.31ZM50.0232 13.3849V32.447H30.9611L50.0232 13.3849ZM29.9395 169.461V44.8107H62.3865V12.3633H145.948V123.678C136.023 124.523 126.333 128.731 118.754 136.31C110.49 144.574 105.939 155.561 105.939 167.248C105.939 167.989 105.958 168.726 105.994 169.461H29.9395V169.461ZM171.887 189.443C165.959 195.372 158.076 198.637 149.692 198.637C141.307 198.637 133.425 195.372 127.496 189.443C121.568 183.514 118.303 175.632 118.303 167.248C118.303 158.864 121.568 150.981 127.496 145.053C133.617 138.933 141.653 135.874 149.692 135.874C157.729 135.874 165.769 138.934 171.887 145.053C184.126 157.291 184.126 177.205 171.887 189.443Z" fill="#12A2CF"/>
<path d="M155.873 150.752H143.51V161.066H133.196V173.429H143.51V183.743H155.873V173.429H166.187V161.066H155.873V150.752Z" fill="#12A2CF"/>
</svg>
