<svg width="217" height="217" viewBox="0 0 217 217" fill="none" xmlns="http://www.w3.org/2000/svg">
<g clip-path="url(#clip0)">
<path d="M139.359 23.7452C123.003 23.7452 109.695 37.0526 109.695 53.4094C109.695 69.7662 123.003 83.0735 139.359 83.0735C155.716 83.0735 169.024 69.7662 169.024 53.4094C169.024 37.0526 155.716 23.7452 139.359 23.7452V23.7452ZM139.359 74.5981C127.676 74.5981 118.171 65.0928 118.171 53.4094C118.171 41.726 127.676 32.2207 139.359 32.2207C151.043 32.2207 160.548 41.726 160.548 53.4094C160.548 65.0928 151.043 74.5981 139.359 74.5981Z" fill="#12A2CF"/>
<path d="M213.126 107.622L180.608 75.1041C184.032 68.6204 185.974 61.2383 185.974 53.4099C185.974 27.7063 165.063 6.7948 139.359 6.7948C113.656 6.7948 92.7442 27.7063 92.7442 53.4099C92.7442 64.6691 96.7569 75.0088 103.427 83.074H16.979C15.6958 83.074 14.4817 83.6555 13.6774 84.6547C6.7415 93.2734 6.7415 106.776 13.6774 115.395C14.4817 116.394 15.6958 116.975 16.979 116.975H26.8453C24.9599 122.396 24.9599 128.506 26.8453 133.926H8.50355C7.22036 133.926 6.00625 134.508 5.20193 135.507C-1.73398 144.126 -1.73398 157.629 5.20193 166.247C6.00625 167.246 7.22036 167.828 8.50355 167.828H14.1321C11.3814 175.737 12.6392 185.117 17.9156 191.674C18.7199 192.673 19.934 193.254 21.2172 193.254H46.6436V205.968C46.6436 207.682 47.6763 209.227 49.2595 209.883C50.8432 210.538 52.6658 210.176 53.8778 208.964L63.5945 199.247L73.3112 208.964C74.1223 209.775 75.2059 210.205 76.309 210.205C76.8548 210.205 77.4053 210.1 77.9295 209.883C79.5132 209.227 80.5455 207.682 80.5455 205.968V193.254H144.111C146.452 193.254 148.349 191.357 148.349 189.017C148.349 186.677 146.452 184.779 144.111 184.779H142.085C139.153 179.813 139.153 172.794 142.085 167.828H144.111C146.452 167.828 148.349 165.93 148.349 163.59C148.349 161.25 146.452 159.352 144.111 159.352H129.372C126.44 154.386 126.44 147.368 129.372 142.401H156.825C159.165 142.401 161.062 140.504 161.062 138.164C161.062 135.824 159.165 133.926 156.825 133.926H154.798C151.867 128.96 151.867 121.941 154.798 116.975H156.825C159.165 116.975 161.062 115.077 161.062 112.737C161.062 110.397 159.165 108.5 156.825 108.5H137.853C136.393 106.026 135.62 102.982 135.643 99.8758C136.87 99.9729 138.109 100.024 139.36 100.024C147.633 100.024 155.408 97.8548 162.151 94.0595L194.42 126.328C196.999 128.907 200.386 130.196 203.773 130.196C207.161 130.196 210.548 128.907 213.126 126.328C215.625 123.83 217.001 120.509 217.001 116.975C217.001 113.442 215.624 110.121 213.126 107.622ZM72.0696 195.737L66.5906 190.258C64.9358 188.603 62.2524 188.603 60.5972 190.258L55.1182 195.737V180.542H72.0691V195.737H72.0696ZM132.789 184.779H80.545V180.542H84.7828C87.1233 180.542 89.0205 178.644 89.0205 176.304C89.0205 173.964 87.1233 172.066 84.7828 172.066H42.4054C40.0649 172.066 38.1677 173.964 38.1677 176.304C38.1677 178.644 40.0649 180.542 42.4054 180.542H46.6432V184.779H23.4267C20.4938 179.811 20.5052 172.795 23.4411 167.828H132.789C130.903 173.249 130.903 179.358 132.789 184.779V184.779ZM120.075 159.353H10.7135C7.78186 154.387 7.78186 147.368 10.7135 142.402H120.075C118.19 147.822 118.19 153.932 120.075 159.353ZM145.502 133.926H36.1412C33.2095 128.96 33.2095 121.942 36.1412 116.975H145.502C143.617 122.396 143.617 128.506 145.502 133.926ZM128.558 108.5H19.189C16.2573 103.534 16.2573 96.5153 19.189 91.5491H112.589C116.971 94.6342 121.907 96.9827 127.215 98.4168C127.001 101.888 127.462 105.335 128.558 108.5V108.5ZM101.22 53.4095C101.22 32.3793 118.329 15.2698 139.359 15.2698C160.389 15.2698 177.499 32.3793 177.499 53.4095C177.499 74.4397 160.389 91.5491 139.359 91.5491C118.329 91.5491 101.22 74.4397 101.22 53.4095V53.4095ZM207.133 120.336C205.28 122.189 202.266 122.189 200.413 120.336L169.237 89.1607C171.672 87.1228 173.896 84.842 175.872 82.3549L207.133 113.616C208.03 114.513 208.524 115.707 208.524 116.976C208.524 118.245 208.03 119.438 207.133 120.336Z" fill="#12A2CF"/>
</g>
<defs>
<clipPath id="clip0">
<rect width="217" height="217" fill="white"/>
</clipPath>
</defs>
</svg>
