<svg width="32" height="32" viewBox="0 0 32 32" fill="none" xmlns="http://www.w3.org/2000/svg">
<g clip-path="url(#clip0)">
<path d="M31.8064 15.4908C31.7836 15.4756 31.7684 15.4528 31.7456 15.4301L27.9021 12.0271C27.5907 11.7537 27.1046 11.7841 26.8311 12.0955C26.5577 12.4069 26.5881 12.8855 26.8919 13.1589L29.239 15.2402H16.7591V2.76025L18.8327 5.09976C19.1138 5.41118 19.5923 5.44157 19.9037 5.16052C20.2152 4.87948 20.2456 4.40094 19.9645 4.08951L16.5616 0.253629C16.2805 -0.0577987 15.802 -0.088182 15.4906 0.192863C15.4678 0.21565 15.445 0.230842 15.4298 0.253629L12.0269 4.08951C11.7534 4.40094 11.7838 4.88707 12.0953 5.16052C12.4067 5.43397 12.8852 5.40359 13.1587 5.09976L15.2323 2.76025V15.2402H2.76L5.09951 13.1665C5.41094 12.8855 5.44132 12.4069 5.16028 12.0955C4.87923 11.7841 4.4007 11.7537 4.08927 12.0347L0.253385 15.4377C-0.0580429 15.7187 -0.0884261 16.1972 0.192619 16.5087C0.215406 16.5314 0.230598 16.5542 0.253385 16.5694L4.08927 19.9723C4.4007 20.2458 4.88683 20.2154 5.16028 19.904C5.43373 19.5926 5.40334 19.114 5.09951 18.8406L2.76 16.7593H15.2399V29.2392L13.1663 26.8997C12.8852 26.5883 12.4067 26.5579 12.0953 26.839C11.7838 27.12 11.7534 27.5985 12.0345 27.91L15.4374 31.7459C15.7185 32.0573 16.197 32.0877 16.5084 31.8066C16.5312 31.7838 16.554 31.7686 16.5692 31.7459L19.9721 27.91C20.2456 27.5985 20.2152 27.1124 19.9037 26.839C19.5923 26.5655 19.1138 26.5959 18.8403 26.8997L16.7591 29.2392V16.7593H29.239L26.8995 18.833C26.5881 19.114 26.5577 19.5926 26.8387 19.904C27.1198 20.2154 27.5983 20.2458 27.9097 19.9648L31.7456 16.5618C32.057 16.2808 32.0874 15.8023 31.8064 15.4908Z" fill="black"/>
</g>
<defs>
<clipPath id="clip0">
<rect width="32" height="32" fill="white"/>
</clipPath>
</defs>
</svg>
