<svg width="32" height="32" viewBox="0 0 32 32" fill="none" xmlns="http://www.w3.org/2000/svg">
<path d="M30.5735 12.9098C29.9717 12.8196 29.3539 12.7332 28.7373 12.6528C28.6626 12.6431 28.602 12.5925 28.5831 12.5238C28.2986 11.4911 27.8856 10.4946 27.3559 9.56202C27.3202 9.49939 27.3269 9.42039 27.3729 9.36058C27.7521 8.86777 28.128 8.36958 28.4902 7.87995C28.9792 7.21883 28.9082 6.2807 28.3252 5.69764L26.3023 3.67476C25.7192 3.09176 24.7812 3.02076 24.1199 3.50988C23.6314 3.87126 23.1332 4.24713 22.6394 4.62707C22.5797 4.67307 22.5005 4.67976 22.4379 4.6442C21.5054 4.11444 20.5089 3.70151 19.4761 3.41688C19.4074 3.39807 19.3567 3.33744 19.347 3.26257C19.2664 2.64507 19.18 2.02732 19.0902 1.42657C18.9685 0.613251 18.255 0 17.4304 0H14.5696C13.745 0 13.0315 0.613251 12.91 1.4265C12.82 2.02738 12.7337 2.64507 12.6531 3.26269C12.6433 3.33751 12.5927 3.39801 12.5239 3.41688C11.4911 3.70163 10.4946 4.11451 9.56221 4.6442C9.49952 4.67976 9.42039 4.67288 9.36064 4.62707C8.86683 4.24713 8.36864 3.87126 7.88002 3.50982C7.2187 3.02076 6.28064 3.09188 5.6977 3.67482L3.67482 5.6977C3.09176 6.28082 3.02082 7.21901 3.50994 7.88008C3.8727 8.37045 4.24857 8.86852 4.62713 9.36058C4.67307 9.42027 4.67982 9.49933 4.64426 9.56202C4.11438 10.4948 3.70151 11.4913 3.41694 12.5238C3.39813 12.5924 3.33751 12.6431 3.26276 12.6529C2.64651 12.7333 2.02875 12.8197 1.42663 12.9098C0.613251 13.0314 0 13.745 0 14.5695V17.4304C0 18.255 0.613251 18.9685 1.4265 19.0902C2.02863 19.1803 2.64644 19.2667 3.26269 19.347C3.33751 19.3568 3.39801 19.4075 3.41688 19.4762C3.70144 20.5087 4.11438 21.5052 4.6442 22.438C4.67976 22.5007 4.67301 22.5797 4.62707 22.6394C4.24757 23.1327 3.8717 23.6308 3.50988 24.12C3.02082 24.7811 3.09169 25.7193 3.67476 26.3024L5.69764 28.3252C6.28076 28.9083 7.21895 28.9793 7.88002 28.4901C8.36858 28.1287 8.8667 27.7529 9.36058 27.3729C9.42027 27.3269 9.49939 27.3203 9.56202 27.3558C10.4945 27.8855 11.491 28.2984 12.5238 28.5831C12.5925 28.602 12.6432 28.6625 12.653 28.7373C12.7335 29.3548 12.82 29.9726 12.9098 30.5733C13.0315 31.3866 13.745 31.9999 14.5696 31.9999H17.4304C18.255 31.9999 18.9685 31.3866 19.0901 30.5732C19.18 29.9717 19.2664 29.354 19.3469 28.7372C19.3567 28.6624 19.4074 28.6018 19.476 28.5829C20.5088 28.2981 21.5054 27.8852 22.4378 27.3555C22.5005 27.3201 22.5795 27.3269 22.6393 27.3727C23.1331 27.7526 23.6313 28.1285 24.1199 28.4899C24.781 28.9789 25.7191 28.9081 26.3022 28.325L28.3251 26.3021C28.9081 25.719 28.9791 24.7809 28.4901 24.1197C28.1279 23.6303 27.7519 23.1321 27.3728 22.6392C27.3269 22.5795 27.3201 22.5004 27.3557 22.4377C27.8856 21.505 28.2984 20.5085 28.583 19.476C28.602 19.4072 28.6625 19.3566 28.7373 19.3468C29.3537 19.2664 29.9716 19.18 30.5734 19.0899C31.3868 18.9683 32 18.2548 32 17.4302V14.5693C32 13.745 31.3868 13.0313 30.5735 12.9098ZM30.5057 17.4305C30.5057 17.5212 30.4399 17.5993 30.3524 17.6125C29.7598 17.7012 29.1514 17.7862 28.5442 17.8655C27.8718 17.9531 27.3217 18.4295 27.1426 19.0792C26.8907 19.9928 26.5254 20.8747 26.0566 21.7C25.7233 22.2868 25.7751 23.0132 26.1886 23.5507C26.5621 24.0362 26.9323 24.5268 27.2889 25.0088C27.3415 25.0799 27.3327 25.1819 27.2687 25.2459L25.2457 27.2688C25.1816 27.3329 25.0797 27.3415 25.0087 27.289C24.5276 26.9331 24.0369 26.5629 23.5505 26.1887C23.0131 25.7752 22.2867 25.7234 21.7 26.0566C20.8747 26.5254 19.9929 26.8908 19.0791 27.1427C18.4295 27.3217 17.9531 27.8719 17.8653 28.5443C17.7861 29.1519 17.701 29.7603 17.6123 30.3526C17.5993 30.44 17.521 30.5059 17.4304 30.5059H14.5696C14.479 30.5059 14.4007 30.44 14.3877 30.3525C14.2992 29.7609 14.214 29.1526 14.1347 28.5444C14.047 27.8719 13.5705 27.3218 12.9209 27.1427C12.0071 26.8909 11.1253 26.5254 10.3 26.0566C10.0427 25.9105 9.75852 25.8384 9.47527 25.8384C9.11252 25.8384 8.75121 25.9565 8.44952 26.1889C7.96308 26.563 7.47245 26.9332 6.99139 27.2892C6.92026 27.3416 6.81845 27.333 6.75439 27.2689L4.73145 25.246C4.66732 25.1819 4.65857 25.08 4.7112 25.009C5.06751 24.5273 5.43764 24.0367 5.81145 23.5509C6.22489 23.0134 6.27676 22.287 5.94357 21.7003C5.47464 20.8747 5.10932 19.993 4.85751 19.0794C4.67845 18.4298 4.12832 17.9533 3.45594 17.8657C2.84894 17.7865 2.2405 17.7013 1.64757 17.6127C1.56013 17.5995 1.49425 17.5213 1.49425 17.4307V14.5698C1.49425 14.4792 1.56013 14.401 1.64757 14.3879C2.2405 14.2992 2.84888 14.2141 3.45582 14.1349C4.12826 14.0473 4.67838 13.5708 4.85745 12.9211C5.10914 12.0076 5.47457 11.1258 5.94351 10.3003C6.27676 9.71346 6.22489 8.98708 5.81145 8.4497C5.43864 7.96495 5.06845 7.47445 4.7112 6.99157C4.6587 6.92051 4.66738 6.81851 4.73145 6.75451L6.75426 4.73157C6.81826 4.66745 6.9202 4.65888 6.99126 4.71132C7.47233 5.0672 7.96295 5.43738 8.44939 5.81164C8.98689 6.22501 9.71321 6.27695 10.3001 5.94364C11.1253 5.47488 12.0071 5.10945 12.9208 4.85757C13.5705 4.67851 14.047 4.12838 14.1347 3.45594C14.2141 2.84775 14.2992 2.23938 14.3877 1.64763C14.4008 1.56032 14.479 1.49438 14.5697 1.49438H17.4305C17.5211 1.49438 17.5993 1.56025 17.6124 1.64769C17.701 2.23925 17.786 2.84757 17.8654 3.45594C17.9531 4.12838 18.4296 4.67851 19.0792 4.85757C19.993 5.10945 20.8747 5.47488 21.7001 5.94364C22.2869 6.27676 23.0132 6.22501 23.5506 5.81151C24.037 5.43732 24.5277 5.06713 25.0087 4.71126C25.0797 4.65863 25.1817 4.66732 25.2458 4.73151L27.2687 6.75439C27.3328 6.81851 27.3414 6.92045 27.2889 6.99145C26.9324 7.47358 26.5622 7.96408 26.1887 8.44958C25.7752 8.98714 25.7234 9.71352 26.0567 10.3003C26.5255 11.1256 26.8909 12.0074 27.1427 12.9211C27.3218 13.5708 27.8721 14.0472 28.5442 14.1348C29.1515 14.214 29.7599 14.2992 30.3526 14.3878C30.4401 14.4009 30.5059 14.4791 30.5059 14.5697V17.4305H30.5057Z" fill="#6D6D6D"/>
<path d="M16.0001 9.0542C12.1701 9.0542 9.0542 12.1701 9.0542 16.0001C9.0542 19.8301 12.1701 22.946 16.0001 22.946C19.8301 22.946 22.946 19.8301 22.946 16.0001C22.946 12.1701 19.8301 9.0542 16.0001 9.0542ZM16.0001 21.4517C12.994 21.4517 10.5485 19.0061 10.5485 16.0001C10.5485 12.994 12.9941 10.5485 16.0001 10.5485C19.0061 10.5485 21.4517 12.9941 21.4517 16.0001C21.4517 19.0061 19.0062 21.4517 16.0001 21.4517Z" fill="#6D6D6D"/>
</svg>
