<svg width="182" height="182" viewBox="0 0 182 182" fill="none" xmlns="http://www.w3.org/2000/svg">
<path d="M174.087 0H7.91309C3.549 0 0 3.549 0 7.91309V174.087C0 178.451 3.549 182 7.90918 182H174.087C178.451 182 182 178.451 182 174.087V7.91309C182 3.549 178.451 0 174.087 0ZM63.3044 126.609V87.0436H118.696V126.609H63.3044ZM118.696 134.522V174.087H63.3044V134.522H118.696ZM118.696 39.5651V79.1302H63.3044V39.5651H118.696ZM174.087 39.5651V79.1302H126.609V39.5651H174.087ZM55.3913 79.1305H7.91309V39.5651H55.3913V79.1305ZM7.91309 87.0436H55.3913V126.609H7.91309V87.0436ZM126.609 87.0436H174.087V126.609H126.609V87.0436ZM174.087 7.91309V31.6524H7.91309V7.91309H174.087ZM7.91309 134.522H55.3913V174.087H7.91309V134.522ZM126.609 174.087V134.522H174.087V174.087H126.609Z" fill="#12A2CF"/>
</svg>
