<svg width="32" height="32" viewBox="0 0 32 32" fill="none" xmlns="http://www.w3.org/2000/svg">
<path d="M27.375 4.22925H21.4125V1.625C21.4125 1.50897 21.3664 1.39769 21.2844 1.31564C21.2023 1.23359 21.091 1.1875 20.975 1.1875H11.025C10.909 1.18757 10.7977 1.23368 10.7157 1.31571C10.6337 1.39775 10.5876 1.50899 10.5875 1.625V4.22925H4.625C4.50897 4.22925 4.39769 4.27534 4.31564 4.35739C4.23359 4.43944 4.1875 4.55072 4.1875 4.66675V7.827C4.18757 7.94301 4.23368 8.05425 4.31571 8.13629C4.39775 8.21832 4.50899 8.26443 4.625 8.2645H5.6805L6.8755 30.3985C6.88158 30.5103 6.93026 30.6155 7.01155 30.6925C7.09283 30.7695 7.20053 30.8125 7.3125 30.8125H24.6875C24.7995 30.8125 24.9072 30.7696 24.9884 30.6926C25.0697 30.6156 25.1183 30.5103 25.1243 30.3985L26.3195 8.2645H27.375C27.491 8.2645 27.6023 8.21841 27.6844 8.13636C27.7664 8.05431 27.8125 7.94303 27.8125 7.827V4.66675C27.8125 4.60929 27.8012 4.55238 27.7793 4.49929C27.7573 4.44619 27.7251 4.39795 27.6844 4.35732C27.6438 4.31669 27.5956 4.28446 27.5425 4.26249C27.4894 4.24051 27.4325 4.22922 27.375 4.22925ZM11.4625 2.0625H20.5375V4.22925H11.4625V2.0625ZM24.273 29.9375H7.727L6.55675 8.2645H25.4435L24.273 29.9375ZM26.9375 7.3895H5.0625V5.10425H11.0165H11.025C11.025 5.10425 11.0305 5.10425 11.0335 5.10425H20.9667H20.975C20.975 5.10425 20.9807 5.10425 20.9835 5.10425H26.9375V7.3895Z" fill="#FF0A0A"/>
<path d="M11.6665 24.1397C11.7825 24.1397 11.8938 24.0936 11.9758 24.0115C12.0578 23.9295 12.1039 23.8183 12.104 23.7022V13.1667C12.104 13.0507 12.0579 12.9394 11.9759 12.8574C11.8938 12.7753 11.7825 12.7292 11.6665 12.7292C11.5505 12.7292 11.4392 12.7753 11.3571 12.8574C11.2751 12.9394 11.229 13.0507 11.229 13.1667V23.7022C11.229 23.8183 11.2751 23.9296 11.3571 24.0116C11.4392 24.0937 11.5505 24.1397 11.6665 24.1397Z" fill="#FF0A0A"/>
<path d="M16 24.1397C16.116 24.1397 16.2273 24.0936 16.3093 24.0115C16.3913 23.9295 16.4374 23.8183 16.4375 23.7022V13.1667C16.4375 13.0507 16.3914 12.9394 16.3094 12.8574C16.2273 12.7753 16.116 12.7292 16 12.7292C15.884 12.7292 15.7727 12.7753 15.6906 12.8574C15.6086 12.9394 15.5625 13.0507 15.5625 13.1667V23.7022C15.5626 23.8183 15.6087 23.9295 15.6907 24.0115C15.7727 24.0936 15.884 24.1397 16 24.1397Z" fill="#FF0A0A"/>
<path d="M20.3335 24.1397C20.4495 24.1397 20.5608 24.0937 20.6429 24.0116C20.7249 23.9296 20.771 23.8183 20.771 23.7022V13.1667C20.771 13.0507 20.7249 12.9394 20.6429 12.8574C20.5608 12.7753 20.4495 12.7292 20.3335 12.7292C20.2175 12.7292 20.1062 12.7753 20.0241 12.8574C19.9421 12.9394 19.896 13.0507 19.896 13.1667V23.7022C19.896 23.8183 19.9421 23.9296 20.0241 24.0116C20.1062 24.0937 20.2175 24.1397 20.3335 24.1397Z" fill="#FF0A0A"/>
</svg>
