<svg width="37" height="37" viewBox="0 0 37 37" fill="none" xmlns="http://www.w3.org/2000/svg">
<g clip-path="url(#clip0)">
<path d="M36.9114 18.153C35.4007 15.3915 33.2462 12.9628 30.6808 11.1294C28.0686 9.26253 25.0172 8.00691 21.8563 7.49838C21.4624 7.43515 21.0914 7.70303 21.0279 8.0971C20.9646 8.49116 21.2326 8.86196 21.6266 8.92534C27.3938 9.85323 32.532 13.4204 35.4489 18.5C31.9675 24.5697 25.5101 28.3232 18.5 28.3232C11.4898 28.3232 5.03246 24.5697 1.55099 18.5C4.46792 13.4204 9.60622 9.85323 15.3733 8.92534C15.7673 8.86196 16.0353 8.49109 15.972 8.0971C15.9085 7.70296 15.5376 7.43529 15.1436 7.49838C11.9827 8.00698 8.93126 9.26253 6.31915 11.1294C3.75372 12.9628 1.59926 15.3915 0.0885478 18.153C-0.0296787 18.3691 -0.0296787 18.6305 0.0885478 18.8467C3.77402 25.5835 10.8288 29.7685 18.5 29.7685C26.1711 29.7685 33.2259 25.5835 36.9113 18.8467C37.0295 18.6305 37.0295 18.3691 36.9114 18.153Z" fill="black"/>
<path d="M10.4109 18.4997C10.4109 22.96 14.0396 26.5888 18.4999 26.5888C22.9603 26.5888 26.589 22.9601 26.589 18.4997C26.589 14.0393 22.9602 10.4106 18.4999 10.4106C14.0396 10.4106 10.4109 14.0394 10.4109 18.4997ZM25.1436 18.4997C25.1436 22.1631 22.1633 25.1434 18.4999 25.1434C14.8364 25.1434 11.8561 22.1631 11.8561 18.4997C11.8561 14.8363 14.8364 11.856 18.4999 11.856C22.1633 11.856 25.1436 14.8363 25.1436 18.4997Z" fill="black"/>
<path d="M18.5 14.0194C16.0295 14.0194 14.0195 16.0293 14.0195 18.4999C14.0195 20.9704 16.0295 22.9803 18.5 22.9803C20.9705 22.9803 22.9805 20.9704 22.9805 18.4999C22.9805 18.1185 22.9319 17.7416 22.8374 17.376C23.0858 16.4979 22.8657 15.5139 22.1759 14.8241C21.6845 14.3328 21.0312 14.0621 20.3363 14.0621C20.0909 14.0621 19.8509 14.0966 19.6211 14.1618C19.2563 14.0678 18.8803 14.0194 18.5 14.0194ZM18.5 21.535C16.8264 21.535 15.4648 20.1735 15.4648 18.4999C15.4648 16.9945 16.5666 15.7422 18.006 15.5056C17.8289 15.861 17.7346 16.2549 17.7346 16.6636C17.7346 17.3585 18.0053 18.0118 18.4967 18.5032C18.9881 18.9946 19.6414 19.2652 20.3363 19.2652C20.7449 19.2652 21.1389 19.1709 21.4943 18.9939C21.2577 20.4332 20.0054 21.535 18.5 21.535ZM21.1539 17.4812C20.9356 17.6996 20.6451 17.8199 20.3363 17.8199C20.0275 17.8199 19.7371 17.6997 19.5188 17.4812C19.3004 17.2628 19.18 16.9725 19.18 16.6637C19.18 16.3549 19.3003 16.0645 19.5188 15.8461C19.7371 15.6277 20.0275 15.5074 20.3363 15.5074C20.6451 15.5074 20.9356 15.6277 21.1539 15.8461C21.6047 16.2969 21.6047 17.0304 21.1539 17.4812Z" fill="black"/>
<path d="M18.5 8.67603C18.6901 8.67603 18.8765 8.59943 19.0108 8.46502C19.1453 8.32988 19.2227 8.14416 19.2227 7.9541C19.2227 7.76332 19.1453 7.5776 19.0108 7.44318C18.8765 7.30805 18.6901 7.23145 18.5 7.23145C18.3099 7.23145 18.1235 7.30805 17.9891 7.44318C17.8547 7.5776 17.7773 7.76332 17.7773 7.9541C17.7773 8.14416 17.8546 8.33061 17.9891 8.46502C18.1235 8.59943 18.3099 8.67603 18.5 8.67603Z" fill="black"/>
</g>
<defs>
<clipPath id="clip0">
<rect width="37" height="37" fill="white"/>
</clipPath>
</defs>
</svg>
