<svg width="64" height="64" viewBox="0 0 64 64" fill="none" xmlns="http://www.w3.org/2000/svg">
<path d="M50.7458 23.4333C50.6122 13.6757 42.633 5.77844 32.8442 5.77844C28.4898 5.77844 24.2947 7.36244 21.032 10.2387C18.12 12.8056 16.128 16.2358 15.3391 20.0019C15.2815 20.0013 15.2243 20.0008 15.1673 20.0008C6.80424 20.0009 0 26.805 0 35.1683C0 43.5315 6.80424 50.3356 15.1675 50.3356H20.7342C21.4878 50.3356 22.0991 49.7246 22.0991 48.9707C22.0991 48.2169 21.4878 47.6059 20.7342 47.6059H15.1675C8.30923 47.6059 2.72974 42.0264 2.72974 35.1683C2.72974 28.3101 8.30923 22.7307 15.1675 22.7307C15.5328 22.7307 15.9191 22.7503 16.3485 22.7907C17.0762 22.8582 17.7296 22.3412 17.8287 21.6162C18.3202 18.0137 20.0988 14.7003 22.8371 12.2864C25.601 9.84993 29.1548 8.50819 32.8441 8.50819C41.2109 8.50819 48.0177 15.3151 48.0177 23.6818C48.0177 23.983 47.9615 24.762 47.9615 24.762C47.9332 25.1635 48.0834 25.5572 48.3724 25.8375C48.661 26.1179 49.0584 26.2562 49.4595 26.2163C49.8225 26.1797 50.1888 26.1613 50.548 26.1613C56.4601 26.1613 61.2703 30.9713 61.2703 36.8835C61.2703 42.7956 56.4603 47.6056 50.548 47.6056H44.4353C43.6817 47.6056 43.0704 48.2166 43.0704 48.9705C43.0704 49.7244 43.6817 50.3354 44.4353 50.3354H50.548C57.9654 50.3354 64 44.301 64 36.8835C63.9999 29.5325 58.0724 23.5395 50.7458 23.4333Z" fill="#12A2CF"/>
<path d="M32.8443 12.1935C27.1371 12.1935 22.2516 16.4586 21.4801 22.1143C21.3782 22.8612 21.9015 23.5471 22.648 23.6512C23.444 23.7622 24.0915 23.1676 24.1848 22.4833C24.7726 18.1735 28.4953 14.9234 32.8443 14.9234C33.5982 14.9234 34.2092 14.3124 34.2092 13.5585C34.2092 12.8045 33.5981 12.1935 32.8443 12.1935Z" fill="#12A2CF"/>
<path d="M39.1597 51.2852C38.6576 50.7232 37.7947 50.6743 37.2325 51.1767L33.9494 54.1096V37.3182C33.9494 36.5644 33.3381 35.9534 32.5845 35.9534C31.8306 35.9534 31.2196 36.5644 31.2196 37.3182V54.1095L27.9366 51.1766C27.3746 50.6743 26.5115 50.7232 26.0095 51.2851C25.5073 51.8473 25.5558 52.71 26.118 53.2123L31.0826 57.6477C31.5108 58.0303 32.0475 58.2215 32.5844 58.2215C33.1211 58.2215 33.658 58.0302 34.086 57.6478L39.0509 53.2125C39.6132 52.7103 39.6619 51.8475 39.1597 51.2852Z" fill="#12A2CF"/>
</svg>
