<svg width="64" height="64" viewBox="0 0 64 64" fill="none" xmlns="http://www.w3.org/2000/svg">
<path d="M49.717 9.79725C50.57 9.79725 51.2618 9.10562 51.2618 8.2525V3.37838C51.2618 1.51562 49.7472 0 47.885 0H15.2052C14.7955 0 14.4027 0.162875 14.1128 0.4525L1.3159 13.2494C1.02628 13.539 0.863403 13.932 0.863403 14.3416V60.6215C0.863528 62.4844 2.37903 64 4.2419 64H47.8849C49.747 64 51.2617 62.4844 51.2617 60.6216V37.0361C51.2618 36.1831 50.5702 35.4914 49.717 35.4914C48.864 35.4914 48.1723 36.183 48.1723 37.0361V60.6216C48.1723 60.7809 48.0434 60.9105 47.8852 60.9105H4.24203C4.08278 60.9105 3.95315 60.7809 3.95315 60.6216V15.8866H13.3732C15.2354 15.8866 16.7502 14.3716 16.7502 12.5095V3.0895H47.885C48.0434 3.0895 48.1722 3.21913 48.1722 3.37838V8.2525C48.1722 9.10562 48.8639 9.79725 49.717 9.79725ZM13.6607 12.5094C13.6607 12.668 13.5317 12.797 13.3732 12.797H6.1384L13.6607 5.2745V12.5094Z" fill="#12A2CF"/>
<path d="M61.6081 12.5495L59.7905 10.7321C57.7525 8.69414 54.4365 8.69439 52.3982 10.7321L37.9703 25.16H12.9448C12.0917 25.16 11.4001 25.8516 11.4001 26.7048C11.4001 27.5579 12.0917 28.2495 12.9448 28.2495H34.8808L25.5835 37.5469H12.9448C12.0917 37.5469 11.4001 38.2385 11.4001 39.0916C11.4001 39.9448 12.0917 40.6364 12.9448 40.6364H22.4938L22.469 40.6613C22.2805 40.8498 22.1442 41.0836 22.0728 41.3404L19.6868 49.9338H12.9448C12.0917 49.9338 11.4001 50.6254 11.4001 51.4785C11.4001 52.3316 12.0917 53.0233 12.9448 53.0233H20.8613C20.8615 53.0233 21.2 52.985 21.2497 52.972C21.2578 52.9699 30.9993 50.2668 30.9993 50.2668C31.2561 50.1955 31.4901 50.059 31.6785 49.8706L61.6082 19.9413C63.646 17.9035 63.646 14.5875 61.6081 12.5495ZM23.0805 49.2591L24.3413 44.7184L27.6213 47.9984L23.0805 49.2591ZM30.5862 46.594L25.7461 41.7539L50.4521 17.0479L55.2923 21.888L30.5862 46.594ZM59.4233 17.7568L57.477 19.7031L52.6367 14.8629L54.5831 12.9165C55.4167 12.083 56.7727 12.0831 57.6057 12.9165L59.4233 14.7341C60.2567 15.5675 60.2567 16.9235 59.4233 17.7568Z" fill="#12A2CF"/>
</svg>
