<svg width="72" height="64" viewBox="0 0 72 64" fill="none" xmlns="http://www.w3.org/2000/svg">
<path d="M43.9398 41.5918H28.0602C26.8633 41.5918 25.8898 42.4572 25.8898 43.521V47.8503C25.8898 48.9142 26.8633 49.7797 28.0602 49.7797H43.94C45.1368 49.7797 46.1105 48.9143 46.1105 47.8503V43.521C46.1102 42.4573 45.1367 41.5918 43.9398 41.5918ZM43.3197 47.2992H28.6802V44.0724H43.3197V47.2992Z" fill="#12A2CF"/>
<path d="M71.2935 30.8697L71.3159 30.8597L60.8527 12.4717C60.0068 10.9854 58.3179 10.0623 56.4446 10.0623H54.456V8.35292C54.456 7.66792 53.8314 7.11267 53.0608 7.11267H18.9394C18.1687 7.11267 17.5441 7.66792 17.5441 8.35292V10.0623H15.5555C13.6822 10.0623 11.9933 10.9854 11.1475 12.4717L0.684141 30.8597L0.7065 30.8697C0.258328 31.5258 0 32.2953 0 33.1173V52.5434C0 54.9387 2.19234 56.8873 4.887 56.8873H67.1131C69.8078 56.8873 72 54.9385 72 52.5434V33.1173C72 32.2953 71.7417 31.5258 71.2935 30.8697ZM54.4559 12.8184H56.4445C57.1418 12.8184 57.7706 13.1623 58.0857 13.7158L66.654 28.7735H60.8278V24.1403C60.8278 23.4553 60.2031 22.9 59.4325 22.9H57.7063V16.2467C57.7063 15.5617 57.0817 15.0064 56.311 15.0064H54.4559V12.8184ZM58.0373 25.3804V28.7734H50.6744C49.411 28.7734 48.2593 29.435 47.7402 30.4587L45.7298 34.4224C45.7107 34.4598 45.6687 34.484 45.6224 34.484H26.3777C26.3315 34.484 26.2894 34.4598 26.2703 34.4223L24.2601 30.4588C23.7409 29.435 22.5892 28.7734 21.3258 28.7734H13.9628V25.3804H58.0373ZM20.3347 9.59317H51.6653V15.0063H20.3347V9.59317ZM54.9157 17.4868V22.8999H17.0842V17.4868H54.9157ZM13.9143 13.7158C14.2293 13.1622 14.8582 12.8184 15.5555 12.8184H17.5441V15.0063H15.689C14.9183 15.0063 14.2937 15.5615 14.2937 16.2465V22.8999H12.5675C11.7969 22.8999 11.1722 23.4552 11.1722 24.1402V28.7734H5.346L13.9143 13.7158ZM67.1131 54.131H4.887C3.90206 54.131 3.10064 53.4187 3.10064 52.5434V33.1173C3.10064 32.2419 3.90192 31.5297 4.887 31.5297H21.3258C21.3719 31.5297 21.4142 31.5539 21.4334 31.5915L23.4436 35.555C23.9628 36.5788 25.1144 37.2402 26.3777 37.2402H45.6223C46.8856 37.2402 48.0374 36.5787 48.5564 35.5552L50.5668 31.5915V31.5914C50.5859 31.5539 50.628 31.5297 50.6742 31.5297H67.113C68.0979 31.5297 68.8991 32.242 68.8991 33.1173V52.5434H68.8992C68.8994 53.4189 68.0981 54.131 67.1131 54.131Z" fill="#12A2CF"/>
</svg>
