<svg width="64" height="64" viewBox="0 0 64 64" fill="none" xmlns="http://www.w3.org/2000/svg">
<path d="M61.147 25.8195C59.9434 25.6393 58.7077 25.4664 57.4746 25.3057C57.3252 25.2863 57.204 25.1849 57.1662 25.0477C56.5971 22.9823 55.7712 20.9893 54.7117 19.124C54.6405 18.9988 54.6539 18.8408 54.7459 18.7212C55.5042 17.7355 56.256 16.7392 56.9804 15.7599C57.9584 14.4377 57.8164 12.5614 56.6504 11.3953L52.6046 7.34951C51.4385 6.18351 49.5624 6.04151 48.2398 7.01976C47.2627 7.74252 46.2665 8.49427 45.2787 9.25414C45.1595 9.34614 45.0011 9.35952 44.8758 9.28839C43.0107 8.22889 41.0177 7.40301 38.9522 6.83376C38.8148 6.79614 38.7135 6.67489 38.694 6.52514C38.5328 5.29013 38.3601 4.05463 38.1803 2.85313C37.937 1.2265 36.5099 0 34.8608 0H29.1392C27.4899 0 26.0629 1.2265 25.8199 2.85301C25.6401 4.05476 25.4673 5.29013 25.3062 6.52539C25.2866 6.67501 25.1853 6.79601 25.0478 6.83376C22.9823 7.40326 20.9892 8.22902 19.1244 9.28839C18.999 9.35952 18.8408 9.34577 18.7213 9.25414C17.7337 8.49427 16.7373 7.74252 15.76 7.01964C14.4374 6.04151 12.5613 6.18376 11.3954 7.34964L7.34964 11.3954C6.18351 12.5616 6.04164 14.438 7.01989 15.7602C7.74539 16.7409 8.49714 17.737 9.25427 18.7212C9.34614 18.8405 9.35964 18.9987 9.28852 19.124C8.22877 20.9897 7.40302 22.9827 6.83389 25.0477C6.79626 25.1848 6.67501 25.2862 6.52551 25.3058C5.29301 25.4667 4.05751 25.6394 2.85326 25.8197C1.2265 26.0628 0 27.4901 0 29.1391V34.8608C0 36.5099 1.2265 37.9371 2.85301 38.1803C4.05726 38.3606 5.29289 38.5333 6.52539 38.6941C6.67501 38.7137 6.79601 38.8149 6.83376 38.9523C7.40289 41.0175 8.22877 43.0105 9.28839 44.876C9.35952 45.0013 9.34602 45.1595 9.25414 45.2788C8.49514 46.2653 7.74339 47.2616 7.01976 48.24C6.04164 49.5622 6.18339 51.4386 7.34951 52.6047L11.3953 56.6505C12.5615 57.8166 14.4379 57.9586 15.76 56.9802C16.7372 56.2575 17.7334 55.5057 18.7212 54.7459C18.8405 54.6539 18.9988 54.6406 19.124 54.7116C20.989 55.7711 22.9819 56.5967 25.0477 57.1662C25.1851 57.204 25.2864 57.3251 25.3059 57.4746C25.4671 58.7096 25.6399 59.9452 25.8197 61.1466C26.0629 62.7732 27.4899 63.9997 29.1392 63.9997H34.8608C36.5099 63.9997 37.9371 62.7732 38.1802 61.1464C38.3601 59.9435 38.5328 58.708 38.6938 57.4744C38.7135 57.3247 38.8147 57.2036 38.9521 57.1657C41.0176 56.5962 43.0107 55.7705 44.8756 54.7111C45.001 54.6402 45.1591 54.6537 45.2786 54.7454C46.2662 55.5052 47.2626 56.257 48.2397 56.9797C49.562 57.9579 51.4382 57.8161 52.6045 56.65L56.6502 52.6042C57.8162 51.4381 57.9582 49.5618 56.9801 48.2395C56.2557 47.2606 55.5039 46.2642 54.7456 45.2783C54.6537 45.159 54.6402 45.0008 54.7115 44.8755C55.7711 43.01 56.5969 41.017 57.166 38.9519C57.204 38.8144 57.325 38.7132 57.4746 38.6936C58.7075 38.5328 59.9431 38.3599 61.1469 38.1798C62.7735 37.9367 64 36.5096 64 34.8604V29.1387C64 27.4899 62.7735 26.0627 61.147 25.8195ZM61.0115 34.8611C61.0115 35.0423 60.8797 35.1986 60.7049 35.2249C59.5196 35.4023 58.3029 35.5723 57.0884 35.7309C55.7436 35.9062 54.6434 36.8589 54.2851 38.1584C53.7815 39.9857 53.0507 41.7493 52.1132 43.4C51.4466 44.5736 51.5502 46.0265 52.3772 47.1015C53.1242 48.0725 53.8646 49.0536 54.5777 50.0176C54.683 50.1597 54.6655 50.3637 54.5374 50.4918L50.4915 54.5376C50.3632 54.6659 50.1594 54.683 50.0174 54.5781C49.0552 53.8662 48.0738 53.1259 47.1011 52.3775C46.0262 51.5504 44.5735 51.4467 43.4 52.1132C41.7493 53.0507 39.9857 53.7816 38.1582 54.2854C36.859 54.6435 35.9062 55.7437 35.7306 57.0886C35.5722 58.3039 35.4019 59.5206 35.2247 60.7051C35.1986 60.88 35.0421 61.0117 34.8608 61.0117H29.1392C28.9579 61.0117 28.8014 60.88 28.7753 60.705C28.5984 59.5219 28.4281 58.3051 28.2694 57.0887C28.0941 55.7439 27.1411 54.6436 25.8418 54.2855C24.0142 53.7817 22.2505 53.0508 20.6 52.1132C20.0854 51.8211 19.517 51.6768 18.9505 51.6768C18.225 51.6768 17.5024 51.9131 16.899 52.3777C15.9262 53.1261 14.9449 53.8665 13.9828 54.5784C13.8405 54.6832 13.6369 54.6661 13.5088 54.5379L9.46289 50.4921C9.33464 50.3638 9.31714 50.1601 9.42239 50.018C10.135 49.0546 10.8753 48.0735 11.6229 47.1017C12.4498 46.0267 12.5535 44.5741 11.8871 43.4006C10.9493 41.7495 10.2186 39.986 9.71502 38.1588C9.35689 36.8596 8.25664 35.9067 6.91189 35.7313C5.69789 35.5729 4.48101 35.4026 3.29513 35.2253C3.12026 35.1991 2.98851 35.0427 2.98851 34.8614V29.1397C2.98851 28.9584 3.12026 28.8021 3.29513 28.7758C4.48101 28.5984 5.69776 28.4282 6.91164 28.2698C8.25652 28.0946 9.35677 27.1417 9.7149 25.8423C10.2183 24.0153 10.9491 22.2517 11.887 20.6005C12.5535 19.4269 12.4498 17.9742 11.6229 16.8994C10.8773 15.9299 10.1369 14.9489 9.42239 13.9832C9.31739 13.841 9.33477 13.637 9.46289 13.509L13.5085 9.46314C13.6365 9.33489 13.8404 9.31777 13.9825 9.42264C14.9447 10.1344 15.9259 10.8748 16.8988 11.6233C17.9738 12.45 19.4264 12.5539 20.6002 11.8873C22.2505 10.9498 24.0142 10.2189 25.8417 9.71514C27.1411 9.35702 28.0941 8.25677 28.2694 6.91189C28.4282 5.69551 28.5983 4.47876 28.7754 3.29526C28.8016 3.12063 28.9581 2.98876 29.1393 2.98876H34.8609C35.0422 2.98876 35.1987 3.12051 35.2248 3.29538C35.4019 4.47851 35.5721 5.69514 35.7308 6.91189C35.9062 8.25677 36.8592 9.35702 38.1585 9.71514C39.986 10.2189 41.7495 10.9498 43.4002 11.8873C44.5737 12.5535 46.0265 12.45 47.1012 11.623C48.0741 10.8746 49.0554 10.1343 50.0174 9.42252C50.1595 9.31727 50.3635 9.33464 50.4916 9.46302L54.5374 13.5088C54.6656 13.637 54.6829 13.8409 54.5779 13.9829C53.8647 14.9472 53.1244 15.9282 52.3774 16.8992C51.5505 17.9743 51.4467 19.427 52.1134 20.6007C53.051 22.2513 53.7817 24.0148 54.2855 25.8423C54.6436 27.1416 55.7441 28.0943 57.0885 28.2696C58.303 28.4281 59.5199 28.5983 60.7052 28.7756C60.8801 28.8018 61.0119 28.9582 61.0119 29.1394V34.8611H61.0115Z" fill="#12A2CF"/>
<path d="M32.0001 18.1083C24.34 18.1083 18.1083 24.34 18.1083 32.0001C18.1083 39.6601 24.34 45.8918 32.0001 45.8918C39.6601 45.8918 45.8918 39.6601 45.8918 32.0001C45.8918 24.34 39.6601 18.1083 32.0001 18.1083ZM32.0001 42.9032C25.9879 42.9032 21.0969 38.0121 21.0969 32.0001C21.0969 25.9879 25.9882 21.0969 32.0001 21.0969C38.0121 21.0969 42.9032 25.988 42.9032 32.0001C42.9032 38.0121 38.0122 42.9032 32.0001 42.9032Z" fill="#12A2CF"/>
</svg>
