<svg width="127" height="127" viewBox="0 0 127 127" fill="none" xmlns="http://www.w3.org/2000/svg">
<path d="M95.7461 57.0508C98.4859 57.0508 100.707 54.8297 100.707 52.0898C100.707 49.35 98.4859 47.1289 95.7461 47.1289C93.0062 47.1289 90.7852 49.35 90.7852 52.0898C90.7852 54.8297 93.0062 57.0508 95.7461 57.0508Z" fill="#12A2CF"/>
<path d="M107.156 9.92188H100.707V4.96094C100.707 2.22101 98.486 0 95.7461 0C93.0062 0 90.7852 2.22101 90.7852 4.96094V9.92188H68.2129V4.96094C68.2129 2.22101 65.9919 0 63.252 0C60.512 0 58.291 2.22101 58.291 4.96094V9.92188H35.9668V4.96094C35.9668 2.22101 33.7458 0 31.0059 0C28.2659 0 26.0449 2.22101 26.0449 4.96094V9.92188H19.8438C8.90191 9.92188 0 18.8238 0 29.7656V107.156C0 118.098 8.90191 127 19.8438 127H57.7949C60.5348 127 62.7559 124.779 62.7559 122.039C62.7559 119.299 60.5348 117.078 57.7949 117.078H19.8438C14.3728 117.078 9.92188 112.627 9.92188 107.156V29.7656C9.92188 24.2947 14.3728 19.8438 19.8438 19.8438H26.0449V24.8047C26.0449 27.5446 28.2659 29.7656 31.0059 29.7656C33.7458 29.7656 35.9668 27.5446 35.9668 24.8047V19.8438H58.291V24.8047C58.291 27.5446 60.512 29.7656 63.252 29.7656C65.9919 29.7656 68.2129 27.5446 68.2129 24.8047V19.8438H90.7852V24.8047C90.7852 27.5446 93.0062 29.7656 95.7461 29.7656C98.486 29.7656 100.707 27.5446 100.707 24.8047V19.8438H107.156C112.627 19.8438 117.078 24.2947 117.078 29.7656V58.043C117.078 60.7829 119.299 63.0039 122.039 63.0039C124.779 63.0039 127 60.7829 127 58.043V29.7656C127 18.8238 118.098 9.92188 107.156 9.92188Z" fill="#12A2CF"/>
<path d="M96.9863 66.9727C80.4366 66.9727 66.9727 80.4366 66.9727 96.9863C66.9727 113.536 80.4366 127 96.9863 127C113.536 127 127 113.536 127 96.9863C127 80.4366 113.536 66.9727 96.9863 66.9727ZM96.9863 117.078C85.9078 117.078 76.8945 108.065 76.8945 96.9863C76.8945 85.9076 85.9078 76.8945 96.9863 76.8945C108.065 76.8945 117.078 85.9076 117.078 96.9863C117.078 108.065 108.065 117.078 96.9863 117.078Z" fill="#12A2CF"/>
<path d="M104.18 92.0254H101.947V86.8164C101.947 84.0765 99.7263 81.8555 96.9863 81.8555C94.2464 81.8555 92.0254 84.0765 92.0254 86.8164V96.9863C92.0254 99.7263 94.2464 101.947 96.9863 101.947H104.18C106.92 101.947 109.141 99.7263 109.141 96.9863C109.141 94.2464 106.92 92.0254 104.18 92.0254Z" fill="#12A2CF"/>
<path d="M74.166 57.0508C76.9059 57.0508 79.127 54.8297 79.127 52.0898C79.127 49.35 76.9059 47.1289 74.166 47.1289C71.4262 47.1289 69.2051 49.35 69.2051 52.0898C69.2051 54.8297 71.4262 57.0508 74.166 57.0508Z" fill="#12A2CF"/>
<path d="M52.5859 78.6309C55.3258 78.6309 57.5469 76.4098 57.5469 73.6699C57.5469 70.9301 55.3258 68.709 52.5859 68.709C49.8461 68.709 47.625 70.9301 47.625 73.6699C47.625 76.4098 49.8461 78.6309 52.5859 78.6309Z" fill="#12A2CF"/>
<path d="M31.0059 57.0508C33.7457 57.0508 35.9668 54.8297 35.9668 52.0898C35.9668 49.35 33.7457 47.1289 31.0059 47.1289C28.266 47.1289 26.0449 49.35 26.0449 52.0898C26.0449 54.8297 28.266 57.0508 31.0059 57.0508Z" fill="#12A2CF"/>
<path d="M31.0059 78.6309C33.7457 78.6309 35.9668 76.4098 35.9668 73.6699C35.9668 70.9301 33.7457 68.709 31.0059 68.709C28.266 68.709 26.0449 70.9301 26.0449 73.6699C26.0449 76.4098 28.266 78.6309 31.0059 78.6309Z" fill="#12A2CF"/>
<path d="M31.0059 100.211C33.7457 100.211 35.9668 97.9899 35.9668 95.25C35.9668 92.5101 33.7457 90.2891 31.0059 90.2891C28.266 90.2891 26.0449 92.5101 26.0449 95.25C26.0449 97.9899 28.266 100.211 31.0059 100.211Z" fill="#12A2CF"/>
<path d="M52.5859 100.211C55.3258 100.211 57.5469 97.9899 57.5469 95.25C57.5469 92.5101 55.3258 90.2891 52.5859 90.2891C49.8461 90.2891 47.625 92.5101 47.625 95.25C47.625 97.9899 49.8461 100.211 52.5859 100.211Z" fill="#12A2CF"/>
<path d="M52.5859 57.0508C55.3258 57.0508 57.5469 54.8297 57.5469 52.0898C57.5469 49.35 55.3258 47.1289 52.5859 47.1289C49.8461 47.1289 47.625 49.35 47.625 52.0898C47.625 54.8297 49.8461 57.0508 52.5859 57.0508Z" fill="#12A2CF"/>
</svg>
