<svg width="130" height="130" viewBox="0 0 130 130" fill="none" xmlns="http://www.w3.org/2000/svg">
<path d="M130 23.3594C130 10.479 119.521 0 106.641 0C93.7602 0 83.2812 10.479 83.2812 23.3594C83.2812 35.3818 92.4112 45.3106 104.102 46.5804V70.5859H93.6914C92.2893 70.5859 91.1523 71.7227 91.1523 73.125C91.1523 74.5273 92.2893 75.6641 93.6914 75.6641H106.641C108.043 75.6641 109.18 74.5273 109.18 73.125V46.5804C120.87 45.3106 130 35.3818 130 23.3594ZM106.641 41.6406C96.5603 41.6406 88.3594 33.4397 88.3594 23.3594C88.3594 13.279 96.5603 5.07812 106.641 5.07812C116.721 5.07812 124.922 13.279 124.922 23.3594C124.922 33.4397 116.721 41.6406 106.641 41.6406Z" fill="#12A2CF"/>
<path d="M112.143 16.9427L104.696 24.39L101.138 20.8325C100.147 19.841 98.5394 19.841 97.5473 20.8325C96.5558 21.824 96.5558 23.4318 97.5473 24.4235L102.9 29.7764C103.377 30.2524 104.022 30.5201 104.696 30.5201C105.369 30.5201 106.015 30.2524 106.491 29.7764L115.734 20.5334C116.725 19.5419 116.725 17.9342 115.734 16.9427C114.742 15.9509 113.135 15.9509 112.143 16.9427Z" fill="#12A2CF"/>
<path d="M31.7187 15.0002C30.7269 14.0087 29.1197 14.0087 28.1277 15.0002L23.3596 19.7686L18.5915 15.0002C17.6 14.0087 15.9927 14.0087 15.0005 15.0002C14.009 15.9917 14.009 17.5995 15.0005 18.591L19.7688 23.3593L15.0005 28.1277C14.009 29.1192 14.009 30.7269 15.0005 31.7184C15.4963 32.2143 16.1461 32.4621 16.7958 32.4621C17.4456 32.4621 18.0953 32.214 18.5912 31.7184L23.3596 26.9501L28.1277 31.7182C28.6235 32.214 29.2733 32.4619 29.923 32.4619C30.5728 32.4619 31.2225 32.2138 31.7184 31.7182C32.7099 30.7267 32.7099 29.1189 31.7184 28.1274L26.9503 23.3593L31.7187 18.591C32.7102 17.5992 32.7102 15.9917 31.7187 15.0002Z" fill="#12A2CF"/>
<path d="M80.925 86.3281H77.6247C81.1063 82.9976 83.2812 78.312 83.2812 73.125V61.4326C83.2812 51.3523 75.0803 43.1514 65 43.1514C54.9197 43.1514 46.7188 51.3523 46.7188 61.4326V73.125C46.7188 78.312 48.8937 82.9976 52.3753 86.3281H49.075C34.6153 86.3281 22.8516 98.0921 22.8516 112.552V127.461C22.8516 128.863 23.9886 130 25.3906 130H104.609C106.011 130 107.148 128.863 107.148 127.461V112.552C107.148 98.0921 95.3847 86.3281 80.925 86.3281ZM65 100.039C66.4021 100.039 67.5391 98.9023 67.5391 97.5V91.4062H77.1304L65 120.804L52.8696 91.4062H62.4609V97.5C62.4609 98.9023 63.5979 100.039 65 100.039ZM65 48.2295C72.2803 48.2295 78.2031 54.1524 78.2031 61.4326V61.458H78.1922C73.9901 61.458 69.909 60.2408 66.3904 57.9381C65.5459 57.3854 64.4544 57.3854 63.6099 57.9381C60.0912 60.2408 56.0099 61.458 51.808 61.458H51.7969V61.4326C51.7969 54.1524 57.7197 48.2295 65 48.2295ZM51.7969 73.125V66.5361H51.8078C56.4555 66.5361 60.9835 65.3311 65 63.0381C69.0165 65.3311 73.5445 66.5361 78.1922 66.5361H78.2031V73.125C78.2031 80.4053 72.2803 86.3281 65 86.3281C57.7197 86.3281 51.7969 80.4053 51.7969 73.125ZM27.9297 112.552C27.9297 101.454 36.5244 92.333 47.4058 91.4781L61.2056 124.922H27.9297V112.552ZM102.07 124.922H68.7944L82.5942 91.4784C93.4756 92.333 102.07 101.454 102.07 112.552V124.922Z" fill="#12A2CF"/>
<path d="M36.3086 75.6641C37.7627 75.6641 38.9314 74.4415 38.8428 72.9681C38.7613 71.6112 37.5685 70.5859 36.2093 70.5859H25.9119C25.9045 70.5859 25.8984 70.5798 25.8984 70.5725V46.5806C33.0109 45.8174 39.355 41.8694 43.2019 35.6911C43.943 34.5008 43.5787 32.9349 42.3886 32.1938C41.1978 31.4524 39.6325 31.817 38.8911 33.007C35.5248 38.413 29.7187 41.6406 23.3594 41.6406C13.279 41.6406 5.07812 33.4397 5.07812 23.3594C5.07812 13.279 13.279 5.07812 23.3594 5.07812C29.7185 5.07812 35.5245 8.30553 38.8908 13.7114C39.6322 14.9018 41.1981 15.2659 42.3884 14.5247C43.5787 13.7836 43.9428 12.2177 43.2014 11.0271C38.902 4.12242 31.4844 0 23.3594 0C10.479 0 0 10.479 0 23.3594C0 35.3818 9.12996 45.3106 20.8203 46.5804V73.1115C20.8203 74.5212 21.9631 75.6641 23.3728 75.6641H36.3086Z" fill="#12A2CF"/>
<path d="M41.6406 23.3594C41.6406 24.0271 41.912 24.6822 42.3846 25.1545C42.8571 25.6268 43.5119 25.8984 44.1797 25.8984C44.8475 25.8984 45.5025 25.6268 45.9746 25.1545C46.4471 24.6822 46.7188 24.0271 46.7188 23.3594C46.7188 22.6916 46.4471 22.0365 45.9746 21.5643C45.5025 21.092 44.8475 20.8203 44.1797 20.8203C43.5119 20.8203 42.8568 21.092 42.3846 21.5643C41.912 22.0365 41.6406 22.6916 41.6406 23.3594Z" fill="#12A2CF"/>
</svg>
