<svg width="162" height="162" viewBox="0 0 162 162" fill="none" xmlns="http://www.w3.org/2000/svg">
<path d="M149.85 162H12.15C5.4513 162 0 156.549 0 149.85V12.15C0 5.4513 5.4513 0 12.15 0H149.85C156.549 0 162 5.4513 162 12.15V149.85C162 156.549 156.549 162 149.85 162ZM12.15 5.4C8.4294 5.4 5.4 8.4267 5.4 12.15V149.85C5.4 153.573 8.4294 156.6 12.15 156.6H149.85C153.573 156.6 156.6 153.573 156.6 149.85V12.15C156.6 8.4267 153.571 5.4 149.85 5.4H12.15Z" fill="#12A2CF"/>
<path d="M24.2998 26.9998H13.4998C12.0094 26.9998 10.7998 25.7929 10.7998 24.2998V13.4998C10.7998 12.0067 12.0094 10.7998 13.4998 10.7998H24.2998C25.7902 10.7998 26.9998 12.0067 26.9998 13.4998V24.2998C26.9998 25.7929 25.7902 26.9998 24.2998 26.9998ZM16.1998 21.5998H21.5998V16.1998H16.1998V21.5998Z" fill="#12A2CF"/>
<path d="M45.8994 26.9998H35.0994C33.609 26.9998 32.3994 25.7929 32.3994 24.2998V13.4998C32.3994 12.0067 33.609 10.7998 35.0994 10.7998H45.8994C47.3898 10.7998 48.5994 12.0067 48.5994 13.4998V24.2998C48.5994 25.7929 47.3898 26.9998 45.8994 26.9998ZM37.7994 21.5998H43.1994V16.1998H37.7994V21.5998Z" fill="#12A2CF"/>
<path d="M67.5 26.9998H56.7C55.2096 26.9998 54 25.7929 54 24.2998V13.4998C54 12.0067 55.2096 10.7998 56.7 10.7998H67.5C68.9904 10.7998 70.2 12.0067 70.2 13.4998V24.2998C70.2 25.7929 68.9904 26.9998 67.5 26.9998ZM59.4 21.5998H64.8V16.1998H59.4V21.5998Z" fill="#12A2CF"/>
<path d="M159.3 37.8H2.7C1.2096 37.8 0 36.5931 0 35.1V12.15C0 5.4513 5.4513 0 12.15 0H149.85C156.549 0 162 5.4513 162 12.15V35.1C162 36.5931 160.79 37.8 159.3 37.8ZM5.4 32.4H156.6V12.15C156.6 8.4267 153.571 5.4 149.85 5.4H12.15C8.4294 5.4 5.4 8.4267 5.4 12.15V32.4Z" fill="#12A2CF"/>
<path d="M20.25 94.5003H16.2C14.7096 94.5003 13.5 93.2934 13.5 91.8003V87.7503C13.5 86.2572 14.7096 85.0503 16.2 85.0503C17.6904 85.0503 18.9 86.2572 18.9 87.7503V89.1003H20.25C21.7404 89.1003 22.95 90.3072 22.95 91.8003C22.95 93.2934 21.7404 94.5003 20.25 94.5003Z" fill="#12A2CF"/>
<path d="M16.2 77.6842C14.7096 77.6842 13.5 76.4773 13.5 74.9842V65.41C13.5 63.9169 14.7096 62.71 16.2 62.71C17.6904 62.71 18.9 63.9169 18.9 65.41V74.9842C18.9 76.4773 17.6904 77.6842 16.2 77.6842Z" fill="#12A2CF"/>
<path d="M16.2 55.3499C14.7096 55.3499 13.5 54.143 13.5 52.6499V48.5999C13.5 47.1068 14.7096 45.8999 16.2 45.8999H20.25C21.7404 45.8999 22.95 47.1068 22.95 48.5999C22.95 50.093 21.7404 51.2999 20.25 51.2999H18.9V52.6499C18.9 54.143 17.6904 55.3499 16.2 55.3499Z" fill="#12A2CF"/>
<path d="M131.185 51.2999H123.261C121.77 51.2999 120.561 50.093 120.561 48.5999C120.561 47.1068 121.77 45.8999 123.261 45.8999H131.185C132.675 45.8999 133.885 47.1068 133.885 48.5999C133.885 50.093 132.675 51.2999 131.185 51.2999ZM112.695 51.2999H104.771C103.281 51.2999 102.071 50.093 102.071 48.5999C102.071 47.1068 103.281 45.8999 104.771 45.8999H112.695C114.186 45.8999 115.395 47.1068 115.395 48.5999C115.395 50.093 114.189 51.2999 112.695 51.2999ZM94.2058 51.2999H86.2813C84.7909 51.2999 83.5813 50.093 83.5813 48.5999C83.5813 47.1068 84.7909 45.8999 86.2813 45.8999H94.2058C95.6962 45.8999 96.9058 47.1068 96.9058 48.5999C96.9058 50.093 95.6962 51.2999 94.2058 51.2999ZM75.7162 51.2999H67.7917C66.3013 51.2999 65.0917 50.093 65.0917 48.5999C65.0917 47.1068 66.3013 45.8999 67.7917 45.8999H75.7162C77.2066 45.8999 78.4162 47.1068 78.4162 48.5999C78.4162 50.093 77.2093 51.2999 75.7162 51.2999ZM57.2293 51.2999H49.3048C47.8144 51.2999 46.6048 50.093 46.6048 48.5999C46.6048 47.1068 47.8144 45.8999 49.3048 45.8999H57.2293C58.7197 45.8999 59.9293 47.1068 59.9293 48.5999C59.9293 50.093 58.7197 51.2999 57.2293 51.2999ZM38.7397 51.2999H30.8152C29.3248 51.2999 28.1152 50.093 28.1152 48.5999C28.1152 47.1068 29.3248 45.8999 30.8152 45.8999H38.7397C40.2301 45.8999 41.4397 47.1068 41.4397 48.5999C41.4397 50.093 40.2301 51.2999 38.7397 51.2999Z" fill="#12A2CF"/>
<path d="M145.8 55.3499C144.309 55.3499 143.1 54.143 143.1 52.6499V51.2999H141.75C140.259 51.2999 139.05 50.093 139.05 48.5999C139.05 47.1068 140.259 45.8999 141.75 45.8999H145.8C147.29 45.8999 148.5 47.1068 148.5 48.5999V52.6499C148.5 54.143 147.29 55.3499 145.8 55.3499Z" fill="#12A2CF"/>
<path d="M145.8 77.6871C144.309 77.6871 143.1 76.4802 143.1 74.9871V65.4129C143.1 63.9198 144.309 62.7129 145.8 62.7129C147.29 62.7129 148.5 63.9198 148.5 65.4129V74.9871C148.5 76.4802 147.29 77.6871 145.8 77.6871Z" fill="#12A2CF"/>
<path d="M145.8 94.5003H141.75C140.259 94.5003 139.05 93.2934 139.05 91.8003C139.05 90.3072 140.259 89.1003 141.75 89.1003H143.1V87.7503C143.1 86.2572 144.309 85.0503 145.8 85.0503C147.29 85.0503 148.5 86.2572 148.5 87.7503V91.8003C148.5 93.2934 147.29 94.5003 145.8 94.5003Z" fill="#12A2CF"/>
<path d="M131.185 94.5001H123.261C121.77 94.5001 120.561 93.2932 120.561 91.8001C120.561 90.307 121.77 89.1001 123.261 89.1001H131.185C132.675 89.1001 133.885 90.307 133.885 91.8001C133.885 93.2932 132.675 94.5001 131.185 94.5001ZM112.695 94.5001H104.771C103.281 94.5001 102.071 93.2932 102.071 91.8001C102.071 90.307 103.281 89.1001 104.771 89.1001H112.695C114.186 89.1001 115.395 90.307 115.395 91.8001C115.395 93.2932 114.189 94.5001 112.695 94.5001ZM94.2058 94.5001H86.2813C84.7909 94.5001 83.5813 93.2932 83.5813 91.8001C83.5813 90.307 84.7909 89.1001 86.2813 89.1001H94.2058C95.6962 89.1001 96.9058 90.307 96.9058 91.8001C96.9058 93.2932 95.6962 94.5001 94.2058 94.5001ZM75.7162 94.5001H67.7917C66.3013 94.5001 65.0917 93.2932 65.0917 91.8001C65.0917 90.307 66.3013 89.1001 67.7917 89.1001H75.7162C77.2066 89.1001 78.4162 90.307 78.4162 91.8001C78.4162 93.2932 77.2093 94.5001 75.7162 94.5001ZM57.2293 94.5001H49.3048C47.8144 94.5001 46.6048 93.2932 46.6048 91.8001C46.6048 90.307 47.8144 89.1001 49.3048 89.1001H57.2293C58.7197 89.1001 59.9293 90.307 59.9293 91.8001C59.9293 93.2932 58.7197 94.5001 57.2293 94.5001ZM38.7397 94.5001H30.8152C29.3248 94.5001 28.1152 93.2932 28.1152 91.8001C28.1152 90.307 29.3248 89.1001 30.8152 89.1001H38.7397C40.2301 89.1001 41.4397 90.307 41.4397 91.8001C41.4397 93.2932 40.2301 94.5001 38.7397 94.5001Z" fill="#12A2CF"/>
<path d="M80.9998 80.9999C79.5094 80.9999 78.2998 79.793 78.2998 78.2999V62.0999C78.2998 60.6068 79.5094 59.3999 80.9998 59.3999C82.4902 59.3999 83.6998 60.6068 83.6998 62.0999V78.2999C83.6998 79.793 82.4902 80.9999 80.9998 80.9999Z" fill="#12A2CF"/>
<path d="M89.1002 72.9H72.9002C71.4098 72.9 70.2002 71.6931 70.2002 70.2C70.2002 68.7069 71.4098 67.5 72.9002 67.5H89.1002C90.5906 67.5 91.8002 68.7069 91.8002 70.2C91.8002 71.6931 90.5906 72.9 89.1002 72.9Z" fill="#12A2CF"/>
<path d="M145.8 148.5H16.2C14.7096 148.5 13.5 147.293 13.5 145.8V105.3C13.5 103.807 14.7096 102.6 16.2 102.6H145.8C147.29 102.6 148.5 103.807 148.5 105.3V145.8C148.5 147.293 147.29 148.5 145.8 148.5ZM18.9 143.1H143.1V108H18.9V143.1Z" fill="#12A2CF"/>
</svg>
