<svg width="214" height="214" viewBox="0 0 214 214" fill="none" xmlns="http://www.w3.org/2000/svg">
<g clip-path="url(#clip0)">
<path d="M52.7047 67.4924L49.7722 64.5599C52.1108 61.2839 53.4922 57.2797 53.4922 52.9567C53.4922 41.9156 44.51 32.9335 33.4689 32.9335C22.4279 32.9335 13.4453 41.9156 13.4453 52.9567C13.4453 63.9977 22.4279 72.9799 33.4689 72.9799C37.9287 72.9799 42.0519 71.5128 45.3836 69.038L48.2709 71.9254C48.8832 72.5373 49.6857 72.8432 50.4878 72.8432C51.2899 72.8432 52.0924 72.5373 52.7047 71.9254C53.9285 70.7011 53.9285 68.7166 52.7047 67.4924ZM33.4689 66.7104C25.8845 66.7104 19.7148 60.5403 19.7148 52.9567C19.7148 45.3731 25.8849 39.203 33.4689 39.203C41.053 39.203 47.2226 45.3731 47.2226 52.9567C47.2226 55.5464 46.5025 57.9702 45.2532 60.0408L41.899 56.6866C40.6743 55.4628 38.6898 55.4628 37.4656 56.6866C36.2413 57.9113 36.2413 59.8958 37.4656 61.12L40.8795 64.534C38.7391 65.9091 36.1966 66.7104 33.4689 66.7104Z" fill="#12A2CF"/>
<path d="M202.422 19.4234L11.579 19.4226C5.19452 19.4226 0 24.6167 0 31.0016V74.9121C0 81.2966 5.19452 86.4911 11.579 86.4911L132.793 86.4907C134.524 86.4907 135.928 85.0876 135.928 83.3559C135.928 81.6243 134.524 80.2212 132.793 80.2212H67.0689V25.693H202.422C205.349 25.693 207.73 28.0741 207.73 31.0012V74.9134C207.73 77.84 205.349 80.2212 202.422 80.2212H184.688C183.701 80.2212 182.772 80.6855 182.18 81.4755L172.023 95.021L161.862 81.4751C161.27 80.6855 160.341 80.2212 159.354 80.2212H147.421C145.69 80.2212 144.287 81.6243 144.287 83.3559C144.287 85.0876 145.69 86.4907 147.421 86.4907H157.787L169.516 102.127C170.108 102.916 171.037 103.381 172.024 103.381C173.01 103.381 173.939 102.916 174.532 102.127L186.256 86.4907H202.422C208.806 86.4907 214 81.297 214 74.9134V31.0012C214 24.6167 208.806 19.4234 202.422 19.4234ZM6.26953 74.9121V31.0016C6.26953 28.0737 8.65112 25.6921 11.579 25.6921H60.7977V80.2216H11.579C8.65112 80.2216 6.26953 77.8396 6.26953 74.9121Z" fill="#12A2CF"/>
<path d="M186.979 52.9567C186.979 51.225 185.576 49.8219 183.844 49.8219H79.5566C77.825 49.8219 76.4219 51.225 76.4219 52.9567C76.4219 54.6883 77.825 56.0914 79.5566 56.0914H183.844C185.575 56.0914 186.979 54.6883 186.979 52.9567Z" fill="#12A2CF"/>
<path d="M195.243 42.5806C196.974 42.5806 198.377 41.1774 198.377 39.4458C198.377 37.7142 196.974 36.311 195.243 36.311H118.821C117.09 36.311 115.687 37.7142 115.687 39.4458C115.687 41.1774 117.09 42.5806 118.821 42.5806H195.243Z" fill="#12A2CF"/>
<path d="M79.5566 42.5806H104.045C105.777 42.5806 107.18 41.1774 107.18 39.4458C107.18 37.7142 105.777 36.311 104.045 36.311H79.5566C77.825 36.311 76.4219 37.7142 76.4219 39.4458C76.4219 41.1774 77.825 42.5806 79.5566 42.5806Z" fill="#12A2CF"/>
<path d="M107 69.6023H169.911C171.642 69.6023 173.045 68.1992 173.045 66.4675C173.045 64.7359 171.642 63.3328 169.911 63.3328H107C105.268 63.3328 103.865 64.7359 103.865 66.4675C103.865 68.1992 105.268 69.6023 107 69.6023Z" fill="#12A2CF"/>
<path d="M79.5566 63.3328C77.825 63.3328 76.4219 64.7359 76.4219 66.4675C76.4219 68.1992 77.825 69.6023 79.5566 69.6023H92.2232C93.9548 69.6023 95.358 68.1992 95.358 66.4675C95.358 64.7359 93.9548 63.3328 92.2232 63.3328H79.5566Z" fill="#12A2CF"/>
<path d="M184.165 126.635C184.154 126.606 184.143 126.578 184.131 126.55C183.528 125.081 182.112 124.133 180.524 124.133C180.523 124.133 180.522 124.133 180.521 124.133C178.932 124.134 177.516 125.085 176.914 126.556C176.904 126.58 176.895 126.603 176.886 126.627L164.202 159.929C163.586 161.547 164.398 163.358 166.016 163.974C167.633 164.591 169.445 163.779 170.061 162.161L172.451 155.886H188.503L190.867 162.151C191.341 163.407 192.533 164.18 193.8 164.18C194.168 164.18 194.542 164.115 194.907 163.978C196.526 163.366 197.344 161.558 196.732 159.938L184.165 126.635ZM174.839 149.616L180.514 134.717L186.136 149.616H174.839Z" fill="#12A2CF"/>
<path d="M202.421 110.621L11.5777 110.62C5.1941 110.62 0 115.816 0 122.202V166.11C0 172.496 5.1941 177.692 11.5777 177.692H27.7448L39.4688 193.324C40.0606 194.113 40.9898 194.577 41.9762 194.577H41.9766C42.963 194.577 43.8922 194.113 44.484 193.324L56.2126 177.692H67.6737C69.4054 177.692 70.8085 176.288 70.8085 174.557C70.8085 172.825 69.4054 171.422 67.6737 171.422H54.6457C53.6592 171.422 52.7301 171.886 52.1383 172.676L41.977 186.219L31.82 172.676C31.2281 171.886 30.2986 171.422 29.3121 171.422H11.5777C8.6507 171.422 6.26953 169.039 6.26953 166.11V122.202C6.26953 119.273 8.6507 116.89 11.5777 116.89H146.931V171.422H82.3022C80.5706 171.422 79.1675 172.825 79.1675 174.557C79.1675 176.288 80.5706 177.692 82.3022 177.692L202.421 177.69C208.805 177.69 214 172.495 214 166.111V122.2C214 115.816 208.805 110.621 202.421 110.621ZM207.73 166.111C207.73 169.039 205.349 171.42 202.421 171.42H153.202V116.891H202.421C205.349 116.891 207.73 119.272 207.73 122.2V166.111Z" fill="#12A2CF"/>
<path d="M30.1562 147.291H134.444C136.175 147.291 137.578 145.887 137.578 144.156C137.578 142.424 136.175 141.021 134.444 141.021H30.1562C28.4246 141.021 27.0215 142.424 27.0215 144.156C27.0215 145.887 28.425 147.291 30.1562 147.291Z" fill="#12A2CF"/>
<path d="M98.313 130.645C98.313 128.913 96.9099 127.51 95.1782 127.51H18.7568C17.0252 127.51 15.6221 128.913 15.6221 130.645C15.6221 132.376 17.0252 133.779 18.7568 133.779H95.1782C96.9095 133.779 98.313 132.376 98.313 130.645Z" fill="#12A2CF"/>
<path d="M134.443 133.779C136.175 133.779 137.578 132.376 137.578 130.645C137.578 128.913 136.175 127.51 134.443 127.51H109.955C108.223 127.51 106.82 128.913 106.82 130.645C106.82 132.376 108.223 133.779 109.955 133.779H134.443Z" fill="#12A2CF"/>
<path d="M44.0889 160.801H106.999C108.731 160.801 110.134 159.398 110.134 157.667C110.134 155.935 108.731 154.532 106.999 154.532H44.0889C42.3572 154.532 40.9541 155.935 40.9541 157.667C40.9541 159.398 42.3576 160.801 44.0889 160.801Z" fill="#12A2CF"/>
<path d="M134.444 154.532H121.777C120.046 154.532 118.643 155.935 118.643 157.667C118.643 159.398 120.046 160.801 121.777 160.801H134.444C136.176 160.801 137.579 159.398 137.579 157.667C137.579 155.935 136.176 154.532 134.444 154.532Z" fill="#12A2CF"/>
</g>
<defs>
<clipPath id="clip0">
<rect width="214" height="214" fill="white"/>
</clipPath>
</defs>
</svg>
