<svg width="569" height="290" viewBox="0 0 569 290" fill="none" xmlns="http://www.w3.org/2000/svg">
<path d="M37.7614 22.3636V29.875C37.7614 31.4545 36.6705 32.5909 34.8977 32.5909C33.1307 32.5909 32.0341 31.4545 32.0341 29.875V22.3636H30.2784V30.017C30.2784 32.4602 32.108 34.1932 34.8977 34.1932C37.6875 34.1932 39.5227 32.4602 39.5227 30.017V22.3636H37.7614ZM48.4787 27.4034C48.1264 26.0455 47.0639 25.1591 45.1776 25.1591C43.206 25.1591 41.8082 26.1989 41.8082 27.7443C41.8082 28.983 42.5582 29.8068 44.1946 30.1705L45.6719 30.4943C46.5128 30.6818 46.9048 31.0568 46.9048 31.6023C46.9048 32.2784 46.1832 32.8068 45.0696 32.8068C44.0526 32.8068 43.3991 32.3693 43.1946 31.5114L41.5526 31.7614C41.8366 33.3068 43.1207 34.1761 45.081 34.1761C47.1889 34.1761 48.6491 33.0568 48.6491 31.4773C48.6491 30.2443 47.8651 29.483 46.2628 29.1136L44.8764 28.7955C43.9162 28.5682 43.5014 28.2443 43.5071 27.6534C43.5014 26.983 44.2287 26.5057 45.1946 26.5057C46.2514 26.5057 46.7401 27.0909 46.9389 27.6761L48.4787 27.4034ZM54.2784 34.1761C56.1818 34.1761 57.5284 33.2386 57.9148 31.8182L56.3068 31.5284C56 32.3523 55.2614 32.7727 54.2955 32.7727C52.8409 32.7727 51.8636 31.8295 51.8182 30.1477H58.0227V29.5455C58.0227 26.392 56.1364 25.1591 54.1591 25.1591C51.7273 25.1591 50.125 27.0114 50.125 29.6932C50.125 32.4034 51.7045 34.1761 54.2784 34.1761ZM51.8239 28.875C51.892 27.6364 52.7898 26.5625 54.1705 26.5625C55.4886 26.5625 56.3523 27.5398 56.358 28.875H51.8239ZM68.2159 25.2727H66.4261V23.1818H64.7273V25.2727H63.4489V26.6364H64.7273V31.7898C64.7216 33.375 65.9318 34.142 67.2727 34.1136C67.8125 34.108 68.1761 34.0057 68.375 33.9318L68.0682 32.5284C67.9545 32.5511 67.7443 32.6023 67.4716 32.6023C66.9205 32.6023 66.4261 32.4205 66.4261 31.4375V26.6364H68.2159V25.2727ZM71.9815 28.8182C71.9815 27.4261 72.8622 26.6307 74.0724 26.6307C75.2429 26.6307 75.9418 27.375 75.9418 28.6534V34H77.6406V28.4489C77.6406 26.2727 76.4474 25.1591 74.652 25.1591C73.294 25.1591 72.4759 25.75 72.0668 26.6932H71.9588V22.3636H70.2827V34H71.9815V28.8182ZM83.669 34.1761C85.5724 34.1761 86.919 33.2386 87.3054 31.8182L85.6974 31.5284C85.3906 32.3523 84.652 32.7727 83.6861 32.7727C82.2315 32.7727 81.2543 31.8295 81.2088 30.1477H87.4134V29.5455C87.4134 26.392 85.527 25.1591 83.5497 25.1591C81.1179 25.1591 79.5156 27.0114 79.5156 29.6932C79.5156 32.4034 81.0952 34.1761 83.669 34.1761ZM81.2145 28.875C81.2827 27.6364 82.1804 26.5625 83.5611 26.5625C84.8793 26.5625 85.7429 27.5398 85.7486 28.875H81.2145ZM97.6861 25.2727H95.8054V24.4886C95.8054 23.7159 96.1236 23.2955 96.9531 23.2955C97.3054 23.2955 97.5554 23.375 97.7145 23.4261L98.1122 22.0511C97.8736 21.9602 97.3793 21.8182 96.6918 21.8182C95.3111 21.8182 94.1009 22.625 94.1009 24.2614V25.2727H92.7543V26.6364H94.1009V34H95.8054V26.6364H97.6861V25.2727ZM102.771 34.1761C105.232 34.1761 106.839 32.375 106.839 29.6761C106.839 26.9602 105.232 25.1591 102.771 25.1591C100.311 25.1591 98.7031 26.9602 98.7031 29.6761C98.7031 32.375 100.311 34.1761 102.771 34.1761ZM102.777 32.75C101.169 32.75 100.419 31.3466 100.419 29.6705C100.419 28 101.169 26.5795 102.777 26.5795C104.374 26.5795 105.124 28 105.124 29.6705C105.124 31.3466 104.374 32.75 102.777 32.75ZM110.435 22.3636H108.736V34H110.435V22.3636ZM114.419 22.3636H112.72V34H114.419V22.3636ZM120.381 34.1761C122.841 34.1761 124.449 32.375 124.449 29.6761C124.449 26.9602 122.841 25.1591 120.381 25.1591C117.92 25.1591 116.312 26.9602 116.312 29.6761C116.312 32.375 117.92 34.1761 120.381 34.1761ZM120.386 32.75C118.778 32.75 118.028 31.3466 118.028 29.6705C118.028 28 118.778 26.5795 120.386 26.5795C121.983 26.5795 122.733 28 122.733 29.6705C122.733 31.3466 121.983 32.75 120.386 32.75ZM127.972 34H129.699L131.472 27.6989H131.602L133.375 34H135.108L137.67 25.2727H135.915L134.216 31.6534H134.131L132.426 25.2727H130.67L128.955 31.6818H128.869L127.159 25.2727H125.403L127.972 34ZM139.283 34H140.982V25.2727H139.283V34ZM140.141 23.9261C140.726 23.9261 141.214 23.4716 141.214 22.9148C141.214 22.358 140.726 21.8977 140.141 21.8977C139.55 21.8977 139.067 22.358 139.067 22.9148C139.067 23.4716 139.55 23.9261 140.141 23.9261ZM144.966 28.8182C144.966 27.4261 145.818 26.6307 147 26.6307C148.153 26.6307 148.852 27.3864 148.852 28.6534V34H150.551V28.4489C150.551 26.2898 149.364 25.1591 147.58 25.1591C146.267 25.1591 145.409 25.767 145.006 26.6932H144.898V25.2727H143.267V34H144.966V28.8182ZM156.489 37.4545C158.71 37.4545 160.426 36.4375 160.426 34.1932V25.2727H158.761V26.6875H158.636C158.335 26.1477 157.733 25.1591 156.108 25.1591C154 25.1591 152.449 26.8239 152.449 29.6023C152.449 32.3864 154.034 33.8693 156.097 33.8693C157.699 33.8693 158.318 32.9659 158.625 32.4091H158.733V34.125C158.733 35.4943 157.795 36.0852 156.506 36.0852C155.091 36.0852 154.54 35.375 154.239 34.875L152.778 35.4773C153.239 36.5455 154.403 37.4545 156.489 37.4545ZM156.472 32.4602C154.955 32.4602 154.165 31.2955 154.165 29.5795C154.165 27.9034 154.938 26.6023 156.472 26.6023C157.955 26.6023 158.75 27.8125 158.75 29.5795C158.75 31.3807 157.938 32.4602 156.472 32.4602ZM170.615 34.1761C172.678 34.1761 174.013 32.9375 174.2 31.2386H172.547C172.331 32.1818 171.598 32.7386 170.626 32.7386C169.189 32.7386 168.263 31.5398 168.263 29.6364C168.263 27.767 169.206 26.5909 170.626 26.5909C171.706 26.5909 172.365 27.2727 172.547 28.0909H174.2C174.018 26.3295 172.581 25.1591 170.598 25.1591C168.138 25.1591 166.547 27.0114 166.547 29.6761C166.547 32.3068 168.081 34.1761 170.615 34.1761ZM177.716 28.8182C177.716 27.4261 178.597 26.6307 179.807 26.6307C180.977 26.6307 181.676 27.375 181.676 28.6534V34H183.375V28.4489C183.375 26.2727 182.182 25.1591 180.386 25.1591C179.028 25.1591 178.21 25.75 177.801 26.6932H177.693V22.3636H176.017V34H177.716V28.8182ZM188.182 34.1932C189.625 34.1932 190.438 33.4602 190.761 32.8068H190.83V34H192.489V28.2045C192.489 25.6648 190.489 25.1591 189.102 25.1591C187.523 25.1591 186.068 25.7955 185.5 27.3864L187.097 27.75C187.347 27.1307 187.983 26.5341 189.125 26.5341C190.222 26.5341 190.784 27.108 190.784 28.0966V28.1364C190.784 28.7557 190.148 28.7443 188.58 28.9261C186.926 29.1193 185.233 29.5511 185.233 31.5341C185.233 33.25 186.523 34.1932 188.182 34.1932ZM188.551 32.8295C187.591 32.8295 186.898 32.3977 186.898 31.5568C186.898 30.6477 187.705 30.3239 188.688 30.1932C189.239 30.1193 190.545 29.9716 190.79 29.7273V30.8523C190.79 31.8864 189.966 32.8295 188.551 32.8295ZM194.751 34H196.45V28.6705C196.45 27.5284 197.331 26.7045 198.536 26.7045C198.888 26.7045 199.286 26.767 199.422 26.8068V25.1818C199.251 25.1591 198.916 25.142 198.7 25.142C197.678 25.142 196.803 25.7216 196.484 26.6591H196.393V25.2727H194.751V34ZM203.354 34.1932C204.797 34.1932 205.609 33.4602 205.933 32.8068H206.001V34H207.661V28.2045C207.661 25.6648 205.661 25.1591 204.274 25.1591C202.695 25.1591 201.24 25.7955 200.672 27.3864L202.268 27.75C202.518 27.1307 203.155 26.5341 204.297 26.5341C205.393 26.5341 205.956 27.108 205.956 28.0966V28.1364C205.956 28.7557 205.32 28.7443 203.751 28.9261C202.098 29.1193 200.405 29.5511 200.405 31.5341C200.405 33.25 201.695 34.1932 203.354 34.1932ZM203.723 32.8295C202.763 32.8295 202.07 32.3977 202.07 31.5568C202.07 30.6477 202.876 30.3239 203.859 30.1932C204.411 30.1193 205.717 29.9716 205.962 29.7273V30.8523C205.962 31.8864 205.138 32.8295 203.723 32.8295ZM213.599 34.1761C215.662 34.1761 216.997 32.9375 217.185 31.2386H215.531C215.315 32.1818 214.582 32.7386 213.611 32.7386C212.173 32.7386 211.247 31.5398 211.247 29.6364C211.247 27.767 212.19 26.5909 213.611 26.5909C214.69 26.5909 215.349 27.2727 215.531 28.0909H217.185C217.003 26.3295 215.565 25.1591 213.582 25.1591C211.122 25.1591 209.531 27.0114 209.531 29.6761C209.531 32.3068 211.065 34.1761 213.599 34.1761ZM223.075 25.2727H221.286V23.1818H219.587V25.2727H218.308V26.6364H219.587V31.7898C219.581 33.375 220.791 34.142 222.132 34.1136C222.672 34.108 223.036 34.0057 223.234 33.9318L222.928 32.5284C222.814 32.5511 222.604 32.6023 222.331 32.6023C221.78 32.6023 221.286 32.4205 221.286 31.4375V26.6364H223.075V25.2727ZM228.622 34.1761C230.526 34.1761 231.872 33.2386 232.259 31.8182L230.651 31.5284C230.344 32.3523 229.605 32.7727 228.639 32.7727C227.185 32.7727 226.207 31.8295 226.162 30.1477H232.366V29.5455C232.366 26.392 230.48 25.1591 228.503 25.1591C226.071 25.1591 224.469 27.0114 224.469 29.6932C224.469 32.4034 226.048 34.1761 228.622 34.1761ZM226.168 28.875C226.236 27.6364 227.134 26.5625 228.514 26.5625C229.832 26.5625 230.696 27.5398 230.702 28.875H226.168ZM234.251 34H235.95V28.6705C235.95 27.5284 236.831 26.7045 238.036 26.7045C238.388 26.7045 238.786 26.767 238.922 26.8068V25.1818C238.751 25.1591 238.416 25.142 238.2 25.142C237.178 25.142 236.303 25.7216 235.984 26.6591H235.893V25.2727H234.251V34ZM246.932 27.4034C246.58 26.0455 245.517 25.1591 243.631 25.1591C241.659 25.1591 240.261 26.1989 240.261 27.7443C240.261 28.983 241.011 29.8068 242.648 30.1705L244.125 30.4943C244.966 30.6818 245.358 31.0568 245.358 31.6023C245.358 32.2784 244.636 32.8068 243.523 32.8068C242.506 32.8068 241.852 32.3693 241.648 31.5114L240.006 31.7614C240.29 33.3068 241.574 34.1761 243.534 34.1761C245.642 34.1761 247.102 33.0568 247.102 31.4773C247.102 30.2443 246.318 29.483 244.716 29.1136L243.33 28.7955C242.369 28.5682 241.955 28.2443 241.96 27.6534C241.955 26.983 242.682 26.5057 243.648 26.5057C244.705 26.5057 245.193 27.0909 245.392 27.6761L246.932 27.4034ZM257.278 25.2727H255.489V23.1818H253.79V25.2727H252.511V26.6364H253.79V31.7898C253.784 33.375 254.994 34.142 256.335 34.1136C256.875 34.108 257.239 34.0057 257.438 33.9318L257.131 32.5284C257.017 32.5511 256.807 32.6023 256.534 32.6023C255.983 32.6023 255.489 32.4205 255.489 31.4375V26.6364H257.278V25.2727ZM262.74 34.1761C265.2 34.1761 266.808 32.375 266.808 29.6761C266.808 26.9602 265.2 25.1591 262.74 25.1591C260.28 25.1591 258.672 26.9602 258.672 29.6761C258.672 32.375 260.28 34.1761 262.74 34.1761ZM262.746 32.75C261.138 32.75 260.388 31.3466 260.388 29.6705C260.388 28 261.138 26.5795 262.746 26.5795C264.342 26.5795 265.092 28 265.092 29.6705C265.092 31.3466 264.342 32.75 262.746 32.75ZM276.206 34.1705C277.797 34.1705 278.422 33.1989 278.729 32.642H278.871V34H280.53V22.3636H278.831V26.6875H278.729C278.422 26.1477 277.842 25.1591 276.217 25.1591C274.109 25.1591 272.558 26.8239 272.558 29.6534C272.558 32.4773 274.087 34.1705 276.206 34.1705ZM276.581 32.7216C275.064 32.7216 274.274 31.3864 274.274 29.6364C274.274 27.9034 275.047 26.6023 276.581 26.6023C278.064 26.6023 278.859 27.8125 278.859 29.6364C278.859 31.4716 278.047 32.7216 276.581 32.7216ZM286.716 34.1761C288.619 34.1761 289.966 33.2386 290.352 31.8182L288.744 31.5284C288.438 32.3523 287.699 32.7727 286.733 32.7727C285.278 32.7727 284.301 31.8295 284.256 30.1477H290.46V29.5455C290.46 26.392 288.574 25.1591 286.597 25.1591C284.165 25.1591 282.562 27.0114 282.562 29.6932C282.562 32.4034 284.142 34.1761 286.716 34.1761ZM284.261 28.875C284.33 27.6364 285.227 26.5625 286.608 26.5625C287.926 26.5625 288.79 27.5398 288.795 28.875H284.261ZM296.499 25.2727H294.618V24.4886C294.618 23.7159 294.936 23.2955 295.766 23.2955C296.118 23.2955 296.368 23.375 296.527 23.4261L296.925 22.0511C296.686 21.9602 296.192 21.8182 295.504 21.8182C294.124 21.8182 292.913 22.625 292.913 24.2614V25.2727H291.567V26.6364H292.913V34H294.618V26.6364H296.499V25.2727ZM298.251 34H299.95V25.2727H298.251V34ZM299.109 23.9261C299.695 23.9261 300.183 23.4716 300.183 22.9148C300.183 22.358 299.695 21.8977 299.109 21.8977C298.518 21.8977 298.036 22.358 298.036 22.9148C298.036 23.4716 298.518 23.9261 299.109 23.9261ZM303.935 28.8182C303.935 27.4261 304.787 26.6307 305.969 26.6307C307.122 26.6307 307.821 27.3864 307.821 28.6534V34H309.52V28.4489C309.52 26.2898 308.332 25.1591 306.548 25.1591C305.236 25.1591 304.378 25.767 303.974 26.6932H303.866V25.2727H302.236V34H303.935V28.8182ZM315.56 34.1761C317.463 34.1761 318.81 33.2386 319.196 31.8182L317.588 31.5284C317.281 32.3523 316.543 32.7727 315.577 32.7727C314.122 32.7727 313.145 31.8295 313.099 30.1477H319.304V29.5455C319.304 26.392 317.418 25.1591 315.44 25.1591C313.009 25.1591 311.406 27.0114 311.406 29.6932C311.406 32.4034 312.986 34.1761 315.56 34.1761ZM313.105 28.875C313.173 27.6364 314.071 26.5625 315.452 26.5625C316.77 26.5625 317.634 27.5398 317.639 28.875H313.105ZM329.497 25.2727H327.707V23.1818H326.009V25.2727H324.73V26.6364H326.009V31.7898C326.003 33.375 327.213 34.142 328.554 34.1136C329.094 34.108 329.457 34.0057 329.656 33.9318L329.349 32.5284C329.236 32.5511 329.026 32.6023 328.753 32.6023C328.202 32.6023 327.707 32.4205 327.707 31.4375V26.6364H329.497V25.2727ZM333.263 28.8182C333.263 27.4261 334.143 26.6307 335.354 26.6307C336.524 26.6307 337.223 27.375 337.223 28.6534V34H338.922V28.4489C338.922 26.2727 337.729 25.1591 335.933 25.1591C334.575 25.1591 333.757 25.75 333.348 26.6932H333.24V22.3636H331.564V34H333.263V28.8182ZM344.95 34.1761C346.854 34.1761 348.2 33.2386 348.587 31.8182L346.979 31.5284C346.672 32.3523 345.933 32.7727 344.967 32.7727C343.513 32.7727 342.536 31.8295 342.49 30.1477H348.695V29.5455C348.695 26.392 346.808 25.1591 344.831 25.1591C342.399 25.1591 340.797 27.0114 340.797 29.6932C340.797 32.4034 342.376 34.1761 344.95 34.1761ZM342.496 28.875C342.564 27.6364 343.462 26.5625 344.842 26.5625C346.161 26.5625 347.024 27.5398 347.03 28.875H342.496ZM358.967 25.2727H357.087V24.4886C357.087 23.7159 357.405 23.2955 358.234 23.2955C358.587 23.2955 358.837 23.375 358.996 23.4261L359.393 22.0511C359.155 21.9602 358.661 21.8182 357.973 21.8182C356.592 21.8182 355.382 22.625 355.382 24.2614V25.2727H354.036V26.6364H355.382V34H357.087V26.6364H358.967V25.2727ZM364.053 34.1761C366.513 34.1761 368.121 32.375 368.121 29.6761C368.121 26.9602 366.513 25.1591 364.053 25.1591C361.592 25.1591 359.984 26.9602 359.984 29.6761C359.984 32.375 361.592 34.1761 364.053 34.1761ZM364.058 32.75C362.45 32.75 361.7 31.3466 361.7 29.6705C361.7 28 362.45 26.5795 364.058 26.5795C365.655 26.5795 366.405 28 366.405 29.6705C366.405 31.3466 365.655 32.75 364.058 32.75ZM370.017 34H371.716V28.6705C371.716 27.5284 372.597 26.7045 373.801 26.7045C374.153 26.7045 374.551 26.767 374.688 26.8068V25.1818C374.517 25.1591 374.182 25.142 373.966 25.142C372.943 25.142 372.068 25.7216 371.75 26.6591H371.659V25.2727H370.017V34ZM376.158 34H377.857V28.6193C377.857 27.4432 378.68 26.625 379.646 26.625C380.589 26.625 381.243 27.25 381.243 28.1989V34H382.936V28.4375C382.936 27.3864 383.578 26.625 384.686 26.625C385.584 26.625 386.322 27.125 386.322 28.3068V34H388.021V28.1477C388.021 26.1534 386.908 25.1591 385.328 25.1591C384.072 25.1591 383.129 25.7614 382.709 26.6932H382.618C382.237 25.7386 381.436 25.1591 380.271 25.1591C379.118 25.1591 378.26 25.733 377.896 26.6932H377.788V25.2727H376.158V34ZM392.838 34.1932C394.281 34.1932 395.094 33.4602 395.418 32.8068H395.486V34H397.145V28.2045C397.145 25.6648 395.145 25.1591 393.759 25.1591C392.179 25.1591 390.724 25.7955 390.156 27.3864L391.753 27.75C392.003 27.1307 392.639 26.5341 393.781 26.5341C394.878 26.5341 395.44 27.108 395.44 28.0966V28.1364C395.44 28.7557 394.804 28.7443 393.236 28.9261C391.582 29.1193 389.889 29.5511 389.889 31.5341C389.889 33.25 391.179 34.1932 392.838 34.1932ZM393.207 32.8295C392.247 32.8295 391.554 32.3977 391.554 31.5568C391.554 30.6477 392.361 30.3239 393.344 30.1932C393.895 30.1193 395.202 29.9716 395.446 29.7273V30.8523C395.446 31.8864 394.622 32.8295 393.207 32.8295ZM403.482 25.2727H401.692V23.1818H399.993V25.2727H398.714V26.6364H399.993V31.7898C399.987 33.375 401.197 34.142 402.538 34.1136C403.078 34.108 403.442 34.0057 403.641 33.9318L403.334 32.5284C403.22 32.5511 403.01 32.6023 402.737 32.6023C402.186 32.6023 401.692 32.4205 401.692 31.4375V26.6364H403.482V25.2727Z" fill="#FFF8F8"/>
<path d="M0.5 0.5H568.5V289.5H0.5V0.5Z" stroke="#12A2CF"/>
<rect x="65" y="112" width="50" height="48" fill="#12A2CF"/>
<path d="M85.5256 145L86.821 141.02H93.1193L94.4148 145H98.3693L92.3523 127.545H87.5966L81.571 145H85.5256ZM87.7585 138.139L89.9062 131.534H90.0426L92.1903 138.139H87.7585Z" fill="black"/>
<path d="M32.3942 87L33.3658 84.0149H38.0895L39.0611 87H42.027L37.5142 73.9091H33.9474L29.4283 87H32.3942ZM34.0689 81.8544L35.6797 76.9006H35.782L37.3928 81.8544H34.0689ZM47.7175 87H50.4405V81.4453C50.4405 80.2372 51.3226 79.4062 52.5243 79.4062C52.9015 79.4062 53.4192 79.4702 53.6749 79.5533V77.1371C53.432 77.0795 53.0932 77.0412 52.8184 77.0412C51.7189 77.0412 50.8176 77.6804 50.4597 78.8949H50.3574V77.1818H47.7175V87ZM59.1001 87.1918C61.5291 87.1918 63.1655 86.0092 63.549 84.1875L61.0305 84.0213C60.7557 84.7692 60.0526 85.1591 59.1449 85.1591C57.7834 85.1591 56.9205 84.2578 56.9205 82.794V82.7876H63.6065V82.0398C63.6065 78.7031 61.5866 77.054 58.9915 77.054C56.1023 77.054 54.2294 79.1058 54.2294 82.1357C54.2294 85.2486 56.0767 87.1918 59.1001 87.1918ZM56.9205 81.1001C56.978 79.9815 57.8281 79.0866 59.0362 79.0866C60.2188 79.0866 61.0369 79.9304 61.0433 81.1001H56.9205ZM65.3835 90.6818H68.1065V85.4276H68.1896C68.5668 86.2457 69.3913 87.1598 70.9766 87.1598C73.2138 87.1598 74.9588 85.3892 74.9588 82.1037C74.9588 78.7287 73.1371 77.054 70.983 77.054C69.3402 77.054 68.554 78.032 68.1896 78.831H68.0682V77.1818H65.3835V90.6818ZM68.049 82.0909C68.049 80.3395 68.7905 79.2209 70.1136 79.2209C71.4624 79.2209 72.1783 80.3906 72.1783 82.0909C72.1783 83.804 71.4496 84.9929 70.1136 84.9929C68.8033 84.9929 68.049 83.8423 68.049 82.0909ZM76.7741 87H79.4972V81.4453C79.4972 80.2372 80.3793 79.4062 81.581 79.4062C81.9581 79.4062 82.4759 79.4702 82.7315 79.5533V77.1371C82.4886 77.0795 82.1499 77.0412 81.875 77.0412C80.7756 77.0412 79.8743 77.6804 79.5163 78.8949H79.4141V77.1818H76.7741V87ZM88.1568 87.1918C90.5858 87.1918 92.2221 86.0092 92.6056 84.1875L90.0872 84.0213C89.8123 84.7692 89.1092 85.1591 88.2015 85.1591C86.84 85.1591 85.9771 84.2578 85.9771 82.794V82.7876H92.6632V82.0398C92.6632 78.7031 90.6433 77.054 88.0481 77.054C85.1589 77.054 83.286 79.1058 83.286 82.1357C83.286 85.2486 85.1333 87.1918 88.1568 87.1918ZM85.9771 81.1001C86.0346 79.9815 86.8848 79.0866 88.0929 79.0866C89.2754 79.0866 90.0936 79.9304 90.1 81.1001H85.9771ZM102.609 79.9815C102.366 78.1726 100.909 77.054 98.4288 77.054C95.9167 77.054 94.2612 78.2173 94.2676 80.1094C94.2612 81.5795 95.188 82.532 97.1056 82.9155L98.8059 83.2543C99.6625 83.4268 100.052 83.7401 100.065 84.2322C100.052 84.8139 99.4196 85.2294 98.4672 85.2294C97.4956 85.2294 96.85 84.8139 96.6838 84.0149L94.0055 84.1555C94.2612 86.0348 95.8592 87.1918 98.4608 87.1918C101.005 87.1918 102.827 85.8942 102.833 83.9574C102.827 82.5384 101.9 81.6882 99.9949 81.2983L98.2179 80.9403C97.3038 80.7422 96.965 80.429 96.9714 79.956C96.965 79.3679 97.6298 78.9844 98.4735 78.9844C99.4196 78.9844 99.9821 79.5021 100.116 80.1349L102.609 79.9815ZM109.022 87.1918C111.451 87.1918 113.087 86.0092 113.471 84.1875L110.952 84.0213C110.678 84.7692 109.974 85.1591 109.067 85.1591C107.705 85.1591 106.842 84.2578 106.842 82.794V82.7876H113.528V82.0398C113.528 78.7031 111.509 77.054 108.913 77.054C106.024 77.054 104.151 79.1058 104.151 82.1357C104.151 85.2486 105.999 87.1918 109.022 87.1918ZM106.842 81.1001C106.9 79.9815 107.75 79.0866 108.958 79.0866C110.141 79.0866 110.959 79.9304 110.965 81.1001H106.842ZM118.028 81.3239C118.035 80.0582 118.789 79.3168 119.888 79.3168C120.982 79.3168 121.64 80.0327 121.634 81.2344V87H124.357V80.7486C124.357 78.4602 123.014 77.054 120.969 77.054C119.511 77.054 118.457 77.7699 118.016 78.9141H117.901V77.1818H115.305V87H118.028V81.3239ZM131.725 77.1818H129.878V74.8295H127.155V77.1818H125.812V79.2273H127.155V84.3409C127.142 86.2649 128.452 87.2173 130.427 87.1342C131.131 87.1087 131.629 86.968 131.904 86.8786L131.476 84.8523C131.341 84.8778 131.054 84.9418 130.798 84.9418C130.255 84.9418 129.878 84.7372 129.878 83.983V79.2273H131.725V77.1818ZM141.527 79.9815C141.284 78.1726 139.827 77.054 137.347 77.054C134.835 77.054 133.179 78.2173 133.186 80.1094C133.179 81.5795 134.106 82.532 136.024 82.9155L137.724 83.2543C138.58 83.4268 138.97 83.7401 138.983 84.2322C138.97 84.8139 138.338 85.2294 137.385 85.2294C136.414 85.2294 135.768 84.8139 135.602 84.0149L132.923 84.1555C133.179 86.0348 134.777 87.1918 137.379 87.1918C139.923 87.1918 141.744 85.8942 141.751 83.9574C141.744 82.5384 140.818 81.6882 138.913 81.2983L137.136 80.9403C136.222 80.7422 135.883 80.429 135.889 79.956C135.883 79.3679 136.548 78.9844 137.392 78.9844C138.338 78.9844 138.9 79.5021 139.034 80.1349L141.527 79.9815ZM149.939 87L150.911 84.0149H155.634L156.606 87H159.572L155.059 73.9091H151.492L146.973 87H149.939ZM151.614 81.8544L153.225 76.9006H153.327L154.938 81.8544H151.614ZM167.214 79.3743H161.243V81.5348H167.214V79.3743ZM169.444 87H179.467V84.718H172.915L179.454 75.5518V73.9091H169.432V76.1911H175.977L169.444 85.3572V87Z" fill="white"/>
<path d="M31.7614 183.145C32.8438 183.145 33.4531 182.595 33.696 182.105H33.7472V183H34.9915V178.653C34.9915 176.749 33.4915 176.369 32.4517 176.369C31.267 176.369 30.1761 176.847 29.75 178.04L30.9474 178.312C31.1349 177.848 31.6122 177.401 32.4688 177.401C33.2912 177.401 33.7131 177.831 33.7131 178.572V178.602C33.7131 179.067 33.2358 179.058 32.0597 179.195C30.8196 179.339 29.5497 179.663 29.5497 181.151C29.5497 182.438 30.517 183.145 31.7614 183.145ZM32.0384 182.122C31.3182 182.122 30.7983 181.798 30.7983 181.168C30.7983 180.486 31.4034 180.243 32.1406 180.145C32.554 180.089 33.5341 179.979 33.7173 179.795V180.639C33.7173 181.415 33.0994 182.122 32.0384 182.122ZM37.9627 179.114C37.9627 178.07 38.6019 177.473 39.4883 177.473C40.3533 177.473 40.8775 178.04 40.8775 178.99V183H42.1516V178.837C42.1516 177.217 41.261 176.369 39.9229 176.369C38.9386 176.369 38.2951 176.825 37.9925 177.52H37.9116V176.455H36.6886V183H37.9627V179.114ZM44.4315 185.455C45.484 185.455 46.1488 184.905 46.5281 183.874L49.234 176.467L47.8576 176.455L46.1999 181.534H46.1317L44.4741 176.455H43.1104L45.5053 183.085L45.3477 183.52C45.0238 184.389 44.5678 184.462 43.869 184.27L43.5621 185.314C43.7156 185.382 44.0479 185.455 44.4315 185.455ZM54.8846 174.273H53.6104V183H54.8846V174.273ZM59.4197 183.132C60.8473 183.132 61.8572 182.429 62.147 181.364L60.9411 181.146C60.7109 181.764 60.157 182.08 59.4325 182.08C58.3416 182.08 57.6087 181.372 57.5746 180.111H62.228V179.659C62.228 177.294 60.8132 176.369 59.3303 176.369C57.5064 176.369 56.3047 177.759 56.3047 179.77C56.3047 181.803 57.4893 183.132 59.4197 183.132ZM57.5788 179.156C57.63 178.227 58.3033 177.422 59.3388 177.422C60.3274 177.422 60.9751 178.155 60.9794 179.156H57.5788ZM66.6971 176.455H65.3548V174.886H64.0806V176.455H63.1218V177.477H64.0806V181.342C64.0763 182.531 64.984 183.107 65.9897 183.085C66.3945 183.081 66.6673 183.004 66.8164 182.949L66.5863 181.896C66.5011 181.913 66.3434 181.952 66.1388 181.952C65.7255 181.952 65.3548 181.815 65.3548 181.078V177.477H66.6971V176.455ZM71.1619 176.455H69.8196V174.886H68.5455V176.455H67.5866V177.477H68.5455V181.342C68.5412 182.531 69.4489 183.107 70.4545 183.085C70.8594 183.081 71.1321 183.004 71.2812 182.949L71.0511 181.896C70.9659 181.913 70.8082 181.952 70.6037 181.952C70.1903 181.952 69.8196 181.815 69.8196 181.078V177.477H71.1619V176.455ZM75.3221 183.132C76.7496 183.132 77.7596 182.429 78.0494 181.364L76.8434 181.146C76.6133 181.764 76.0593 182.08 75.3349 182.08C74.244 182.08 73.511 181.372 73.4769 180.111H78.1303V179.659C78.1303 177.294 76.7156 176.369 75.2326 176.369C73.4087 176.369 72.207 177.759 72.207 179.77C72.207 181.803 73.3917 183.132 75.3221 183.132ZM73.4812 179.156C73.5323 178.227 74.2056 177.422 75.2411 177.422C76.2298 177.422 76.8775 178.155 76.8817 179.156H73.4812ZM79.544 183H80.8182V179.003C80.8182 178.146 81.4787 177.528 82.3821 177.528C82.6463 177.528 82.9446 177.575 83.0469 177.605V176.386C82.919 176.369 82.6676 176.357 82.5057 176.357C81.7386 176.357 81.0824 176.791 80.8438 177.494H80.7756V176.455H79.544V183ZM90.4403 176.455H89.0298V175.866C89.0298 175.287 89.2685 174.972 89.8906 174.972C90.1548 174.972 90.3423 175.031 90.4616 175.07L90.7599 174.038C90.581 173.97 90.2102 173.864 89.6946 173.864C88.6591 173.864 87.7514 174.469 87.7514 175.696V176.455H86.7415V177.477H87.7514V183H89.0298V177.477H90.4403V176.455ZM91.755 183H93.0291V179.003C93.0291 178.146 93.6896 177.528 94.593 177.528C94.8572 177.528 95.1555 177.575 95.2578 177.605V176.386C95.13 176.369 94.8786 176.357 94.7166 176.357C93.9496 176.357 93.2933 176.791 93.0547 177.494H92.9865V176.455H91.755V183ZM98.8832 183.132C100.728 183.132 101.934 181.781 101.934 179.757C101.934 177.72 100.728 176.369 98.8832 176.369C97.038 176.369 95.832 177.72 95.832 179.757C95.832 181.781 97.038 183.132 98.8832 183.132ZM98.8874 182.062C97.6815 182.062 97.119 181.01 97.119 179.753C97.119 178.5 97.6815 177.435 98.8874 177.435C100.085 177.435 100.647 178.5 100.647 179.753C100.647 181.01 100.085 182.062 98.8874 182.062ZM103.357 183H104.631V178.964C104.631 178.082 105.249 177.469 105.973 177.469C106.68 177.469 107.17 177.938 107.17 178.649V183H108.44V178.828C108.44 178.04 108.922 177.469 109.753 177.469C110.426 177.469 110.98 177.844 110.98 178.73V183H112.254V178.611C112.254 177.115 111.419 176.369 110.234 176.369C109.293 176.369 108.585 176.821 108.27 177.52H108.202C107.916 176.804 107.315 176.369 106.442 176.369C105.577 176.369 104.933 176.8 104.661 177.52H104.58V176.455H103.357V183ZM117.977 183L118.778 180.69H122.188L122.984 183H124.382L121.241 174.273H119.72L116.58 183H117.977ZM119.162 179.582L120.449 175.858H120.517L121.804 179.582H119.162ZM131.771 176.455H130.429V174.886H129.155V176.455H128.196V177.477H129.155V181.342C129.151 182.531 130.058 183.107 131.064 183.085C131.469 183.081 131.741 183.004 131.891 182.949L131.661 181.896C131.575 181.913 131.418 181.952 131.213 181.952C130.8 181.952 130.429 181.815 130.429 181.078V177.477H131.771V176.455ZM135.868 183.132C137.713 183.132 138.919 181.781 138.919 179.757C138.919 177.72 137.713 176.369 135.868 176.369C134.022 176.369 132.816 177.72 132.816 179.757C132.816 181.781 134.022 183.132 135.868 183.132ZM135.872 182.062C134.666 182.062 134.103 181.01 134.103 179.753C134.103 178.5 134.666 177.435 135.872 177.435C137.069 177.435 137.632 178.5 137.632 179.753C137.632 181.01 137.069 182.062 135.872 182.062ZM143.393 183H149.632V181.866H145.004L149.593 175.151V174.273H143.355V175.406H147.983L143.393 182.122V183Z" fill="white"/>
<rect x="279" y="109" width="50" height="48" fill="#C4C4C4"/>
<path d="M302.73 123.307C298.827 123.29 296.193 125.847 296.21 129.358C296.219 132.614 298.477 134.974 301.571 134.974C303.489 134.974 305.193 134.045 305.969 132.511H306.088C306.08 135.972 304.878 138.077 302.602 138.077C301.264 138.077 300.301 137.344 300.02 136.074H296.381C296.722 139.014 299.108 141.239 302.602 141.239C306.923 141.239 309.71 137.744 309.702 131.821C309.693 125.497 306.318 123.324 302.73 123.307ZM302.756 126.205C304.452 126.205 305.705 127.585 305.722 129.247C305.73 130.918 304.409 132.298 302.722 132.298C301.017 132.298 299.798 130.969 299.79 129.256C299.773 127.551 301.043 126.205 302.756 126.205Z" fill="black"/>
<path d="M257.087 73.9091H254.332V82.142H254.217L248.567 73.9091H246.138V87H248.906V78.7607H249.001L254.697 87H257.087V73.9091ZM265.619 82.8196C265.626 84.1364 264.724 84.8267 263.746 84.8267C262.717 84.8267 262.052 84.1044 262.046 82.9474V77.1818H259.323V83.4332C259.329 85.728 260.672 87.1278 262.647 87.1278C264.123 87.1278 265.184 86.3672 265.626 85.2166H265.728V87H268.342V77.1818H265.619V82.8196ZM270.52 87H273.243V81.1065C273.243 80.0199 273.934 79.2976 274.841 79.2976C275.736 79.2976 276.337 79.9112 276.337 80.8764V87H278.977V81.0043C278.977 79.9879 279.559 79.2976 280.549 79.2976C281.419 79.2976 282.071 79.8409 282.071 80.9339V87H284.787V80.397C284.787 78.2685 283.522 77.054 281.694 77.054C280.255 77.054 279.137 77.7891 278.734 78.9141H278.632C278.319 77.7763 277.315 77.054 275.966 77.054C274.643 77.054 273.64 77.7571 273.23 78.9141H273.115V77.1818H270.52V87ZM286.989 87H289.674V85.4276H289.795C290.173 86.2457 290.997 87.1598 292.582 87.1598C294.82 87.1598 296.565 85.3892 296.565 82.1037C296.565 78.7287 294.743 77.054 292.589 77.054C290.946 77.054 290.16 78.032 289.795 78.831H289.712V73.9091H286.989V87ZM289.655 82.0909C289.655 80.3395 290.396 79.2209 291.719 79.2209C293.068 79.2209 293.784 80.3906 293.784 82.0909C293.784 83.804 293.055 84.9929 291.719 84.9929C290.409 84.9929 289.655 83.8423 289.655 82.0909ZM302.856 87.1918C305.285 87.1918 306.921 86.0092 307.305 84.1875L304.786 84.0213C304.512 84.7692 303.808 85.1591 302.901 85.1591C301.539 85.1591 300.676 84.2578 300.676 82.794V82.7876H307.362V82.0398C307.362 78.7031 305.343 77.054 302.747 77.054C299.858 77.054 297.985 79.1058 297.985 82.1357C297.985 85.2486 299.833 87.1918 302.856 87.1918ZM300.676 81.1001C300.734 79.9815 301.584 79.0866 302.792 79.0866C303.975 79.0866 304.793 79.9304 304.799 81.1001H300.676ZM309.139 87H311.862V81.4453C311.862 80.2372 312.744 79.4062 313.946 79.4062C314.323 79.4062 314.841 79.4702 315.097 79.5533V77.1371C314.854 77.0795 314.515 77.0412 314.24 77.0412C313.141 77.0412 312.24 77.6804 311.882 78.8949H311.779V77.1818H309.139V87ZM324.674 79.9815C324.431 78.1726 322.973 77.054 320.493 77.054C317.981 77.054 316.326 78.2173 316.332 80.1094C316.326 81.5795 317.252 82.532 319.17 82.9155L320.87 83.2543C321.727 83.4268 322.117 83.7401 322.13 84.2322C322.117 84.8139 321.484 85.2294 320.532 85.2294C319.56 85.2294 318.914 84.8139 318.748 84.0149L316.07 84.1555C316.326 86.0348 317.924 87.1918 320.525 87.1918C323.069 87.1918 324.891 85.8942 324.897 83.9574C324.891 82.5384 323.964 81.6882 322.059 81.2983L320.282 80.9403C319.368 80.7422 319.029 80.429 319.036 79.956C319.029 79.3679 319.694 78.9844 320.538 78.9844C321.484 78.9844 322.047 79.5021 322.181 80.1349L324.674 79.9815ZM335.885 87.2876C339.177 87.2876 341.165 84.782 341.172 80.4673C341.178 76.1847 339.164 73.7301 335.885 73.7301C332.6 73.7301 330.605 76.1783 330.599 80.4673C330.586 84.7692 332.587 87.2812 335.885 87.2876ZM335.885 84.9929C334.383 84.9929 333.412 83.4844 333.418 80.4673C333.424 77.495 334.39 75.9993 335.885 75.9993C337.375 75.9993 338.346 77.495 338.346 80.4673C338.353 83.4844 337.381 84.9929 335.885 84.9929ZM349.288 79.3743H343.318V81.5348H349.288V79.3743ZM356.319 73.7301C353.392 73.7173 351.416 75.6349 351.429 78.2685C351.436 80.7102 353.129 82.4808 355.45 82.4808C356.888 82.4808 358.166 81.7841 358.748 80.6335H358.838C358.831 83.2287 357.93 84.8075 356.223 84.8075C355.22 84.8075 354.497 84.2578 354.286 83.3054H351.557C351.813 85.5107 353.602 87.179 356.223 87.179C359.464 87.179 361.554 84.5582 361.548 80.1158C361.541 75.3729 359.01 73.7429 356.319 73.7301ZM356.338 75.9034C357.61 75.9034 358.55 76.9389 358.563 78.1854C358.569 79.4382 357.578 80.4737 356.313 80.4737C355.034 80.4737 354.12 79.4766 354.114 78.1918C354.101 76.9134 355.053 75.9034 356.338 75.9034Z" fill="white"/>
<path d="M238.761 187.145C239.844 187.145 240.453 186.595 240.696 186.105H240.747V187H241.991V182.653C241.991 180.749 240.491 180.369 239.452 180.369C238.267 180.369 237.176 180.847 236.75 182.04L237.947 182.312C238.135 181.848 238.612 181.401 239.469 181.401C240.291 181.401 240.713 181.831 240.713 182.572V182.602C240.713 183.067 240.236 183.058 239.06 183.195C237.82 183.339 236.55 183.663 236.55 185.151C236.55 186.438 237.517 187.145 238.761 187.145ZM239.038 186.122C238.318 186.122 237.798 185.798 237.798 185.168C237.798 184.486 238.403 184.243 239.141 184.145C239.554 184.089 240.534 183.979 240.717 183.795V184.639C240.717 185.415 240.099 186.122 239.038 186.122ZM244.963 183.114C244.963 182.07 245.602 181.473 246.488 181.473C247.353 181.473 247.877 182.04 247.877 182.99V187H249.152V182.837C249.152 181.217 248.261 180.369 246.923 180.369C245.939 180.369 245.295 180.825 244.993 181.52H244.912V180.455H243.689V187H244.963V183.114ZM251.431 189.455C252.484 189.455 253.149 188.905 253.528 187.874L256.234 180.467L254.858 180.455L253.2 185.534H253.132L251.474 180.455H250.11L252.505 187.085L252.348 187.52C252.024 188.389 251.568 188.462 250.869 188.27L250.562 189.314C250.716 189.382 251.048 189.455 251.431 189.455ZM267.757 178.273H266.453V184.682H266.372L261.931 178.273H260.713V187H262.029V180.599H262.11L266.547 187H267.757V178.273ZM273.722 184.286C273.726 185.398 272.899 185.926 272.183 185.926C271.395 185.926 270.849 185.355 270.849 184.464V180.455H269.575V184.618C269.575 186.241 270.466 187.085 271.723 187.085C272.707 187.085 273.376 186.565 273.679 185.866H273.747V187H275V180.455H273.722V184.286ZM276.712 187H277.986V182.964C277.986 182.082 278.604 181.469 279.328 181.469C280.036 181.469 280.526 181.938 280.526 182.649V187H281.796V182.828C281.796 182.04 282.277 181.469 283.108 181.469C283.782 181.469 284.336 181.844 284.336 182.73V187H285.61V182.611C285.61 181.115 284.775 180.369 283.59 180.369C282.648 180.369 281.941 180.821 281.625 181.52H281.557C281.272 180.804 280.671 180.369 279.797 180.369C278.932 180.369 278.289 180.8 278.016 181.52H277.935V180.455H276.712V187ZM287.42 187H288.664V185.982H288.771C289.001 186.399 289.469 187.128 290.663 187.128C292.248 187.128 293.398 185.858 293.398 183.74C293.398 181.618 292.231 180.369 290.65 180.369C289.435 180.369 288.996 181.111 288.771 181.516H288.694V178.273H287.42V187ZM288.668 183.727C288.668 182.359 289.265 181.452 290.377 181.452C291.532 181.452 292.112 182.428 292.112 183.727C292.112 185.04 291.515 186.041 290.377 186.041C289.282 186.041 288.668 185.104 288.668 183.727ZM297.65 187.132C299.078 187.132 300.088 186.429 300.377 185.364L299.172 185.146C298.941 185.764 298.387 186.08 297.663 186.08C296.572 186.08 295.839 185.372 295.805 184.111H300.458V183.659C300.458 181.294 299.044 180.369 297.561 180.369C295.737 180.369 294.535 181.759 294.535 183.77C294.535 185.803 295.72 187.132 297.65 187.132ZM295.809 183.156C295.86 182.227 296.534 181.422 297.569 181.422C298.558 181.422 299.206 182.155 299.21 183.156H295.809ZM301.872 187H303.146V183.003C303.146 182.146 303.807 181.528 304.71 181.528C304.974 181.528 305.273 181.575 305.375 181.605V180.386C305.247 180.369 304.996 180.357 304.834 180.357C304.067 180.357 303.411 180.791 303.172 181.494H303.104V180.455H301.872V187ZM312.768 180.455H311.358V179.866C311.358 179.287 311.597 178.972 312.219 178.972C312.483 178.972 312.67 179.031 312.79 179.07L313.088 178.038C312.909 177.97 312.538 177.864 312.023 177.864C310.987 177.864 310.08 178.469 310.08 179.696V180.455H309.07V181.477H310.08V187H311.358V181.477H312.768V180.455ZM314.083 187H315.357V183.003C315.357 182.146 316.018 181.528 316.921 181.528C317.185 181.528 317.484 181.575 317.586 181.605V180.386C317.458 180.369 317.207 180.357 317.045 180.357C316.278 180.357 315.621 180.791 315.383 181.494H315.315V180.455H314.083V187ZM321.211 187.132C323.056 187.132 324.262 185.781 324.262 183.757C324.262 181.72 323.056 180.369 321.211 180.369C319.366 180.369 318.16 181.72 318.16 183.757C318.16 185.781 319.366 187.132 321.211 187.132ZM321.216 186.062C320.01 186.062 319.447 185.01 319.447 183.753C319.447 182.5 320.01 181.435 321.216 181.435C322.413 181.435 322.975 182.5 322.975 183.753C322.975 185.01 322.413 186.062 321.216 186.062ZM325.685 187H326.959V182.964C326.959 182.082 327.577 181.469 328.301 181.469C329.009 181.469 329.499 181.938 329.499 182.649V187H330.768V182.828C330.768 182.04 331.25 181.469 332.081 181.469C332.754 181.469 333.308 181.844 333.308 182.73V187H334.582V182.611C334.582 181.115 333.747 180.369 332.562 180.369C331.621 180.369 330.913 180.821 330.598 181.52H330.53C330.244 180.804 329.643 180.369 328.77 180.369C327.905 180.369 327.261 180.8 326.989 181.52H326.908V180.455H325.685V187ZM342.487 187.145C344.503 187.145 345.683 185.5 345.683 182.641C345.683 179.803 344.486 178.153 342.487 178.153C340.484 178.153 339.291 179.798 339.287 182.641C339.287 185.496 340.467 187.141 342.487 187.145ZM342.487 186.007C341.307 186.007 340.595 184.822 340.595 182.641C340.599 180.467 341.311 179.27 342.487 179.27C343.659 179.27 344.375 180.467 344.375 182.641C344.375 184.822 343.663 186.007 342.487 186.007ZM353.443 180.455H352.101V178.886H350.827V180.455H349.868V181.477H350.827V185.342C350.822 186.531 351.73 187.107 352.736 187.085C353.141 187.081 353.413 187.004 353.562 186.949L353.332 185.896C353.247 185.913 353.089 185.952 352.885 185.952C352.472 185.952 352.101 185.815 352.101 185.078V181.477H353.443V180.455ZM357.539 187.132C359.385 187.132 360.591 185.781 360.591 183.757C360.591 181.72 359.385 180.369 357.539 180.369C355.694 180.369 354.488 181.72 354.488 183.757C354.488 185.781 355.694 187.132 357.539 187.132ZM357.544 186.062C356.338 186.062 355.775 185.01 355.775 183.753C355.775 182.5 356.338 181.435 357.544 181.435C358.741 181.435 359.304 182.5 359.304 183.753C359.304 185.01 358.741 186.062 357.544 186.062ZM368.074 178.153C366.241 178.136 365.044 179.453 365.044 181.107C365.048 182.773 366.254 183.974 367.767 183.974C368.691 183.974 369.484 183.523 369.931 182.79H370C369.995 184.797 369.241 185.969 367.963 185.969C367.127 185.969 366.591 185.457 366.42 184.712H365.12C365.312 186.122 366.403 187.119 367.963 187.119C369.991 187.119 371.261 185.376 371.261 182.321C371.257 179.134 369.629 178.166 368.074 178.153ZM368.078 179.261C369.088 179.261 369.833 180.118 369.833 181.077C369.838 182.048 369.049 182.901 368.052 182.901C367.051 182.901 366.326 182.099 366.322 181.089C366.322 180.075 367.076 179.261 368.078 179.261Z" fill="white"/>
<rect x="454" y="163" width="50" height="48" fill="#4D4A4A"/>
<path d="M482.605 184.392H474.645V187.273H482.605V184.392Z" fill="white"/>
<rect x="454" y="103" width="50" height="48" fill="#4D4A4A"/>
<path d="M482.051 114.727H478.923L473.298 135.625H476.426L482.051 114.727Z" fill="white"/>
<rect x="454" y="223" width="50" height="48" fill="#4D4A4A"/>
<path d="M484.446 253H472.983V255.753H484.446V253Z" fill="white"/>
<path d="M435.239 77.674H437.892C437.854 75.3409 435.936 73.7301 433.021 73.7301C430.151 73.7301 428.048 75.3153 428.061 77.6932C428.055 79.6236 429.416 80.7294 431.628 81.2599L433.053 81.6179C434.479 81.9631 435.271 82.3722 435.278 83.2543C435.271 84.2131 434.364 84.8651 432.957 84.8651C431.519 84.8651 430.484 84.2003 430.394 82.8899H427.716C427.786 85.7216 429.812 87.1854 432.989 87.1854C436.185 87.1854 438.065 85.6577 438.071 83.2607C438.065 81.081 436.422 79.924 434.146 79.4126L432.97 79.1314C431.832 78.8693 430.88 78.4474 430.899 77.5078C430.899 76.6641 431.647 76.044 433.002 76.044C434.325 76.044 435.137 76.6449 435.239 77.674ZM444.356 87.1918C446.785 87.1918 448.421 86.0092 448.805 84.1875L446.286 84.0213C446.012 84.7692 445.308 85.1591 444.401 85.1591C443.039 85.1591 442.176 84.2578 442.176 82.794V82.7876H448.862V82.0398C448.862 78.7031 446.843 77.054 444.247 77.054C441.358 77.054 439.485 79.1058 439.485 82.1357C439.485 85.2486 441.333 87.1918 444.356 87.1918ZM442.176 81.1001C442.234 79.9815 443.084 79.0866 444.292 79.0866C445.475 79.0866 446.293 79.9304 446.299 81.1001H442.176ZM450.639 90.6818H453.362V85.4276H453.445C453.823 86.2457 454.647 87.1598 456.232 87.1598C458.47 87.1598 460.215 85.3892 460.215 82.1037C460.215 78.7287 458.393 77.054 456.239 77.054C454.596 77.054 453.81 78.032 453.445 78.831H453.324V77.1818H450.639V90.6818ZM453.305 82.0909C453.305 80.3395 454.046 79.2209 455.369 79.2209C456.718 79.2209 457.434 80.3906 457.434 82.0909C457.434 83.804 456.705 84.9929 455.369 84.9929C454.059 84.9929 453.305 83.8423 453.305 82.0909ZM464.83 87.1854C466.281 87.1854 467.22 86.5526 467.7 85.6385H467.776V87H470.359V80.3778C470.359 78.0384 468.377 77.054 466.191 77.054C463.839 77.054 462.292 78.179 461.915 79.9688L464.433 80.1733C464.619 79.5213 465.2 79.0419 466.178 79.0419C467.105 79.0419 467.636 79.5085 467.636 80.3139V80.3523C467.636 80.9851 466.965 81.0682 465.258 81.2344C463.315 81.4134 461.57 82.0653 461.57 84.2578C461.57 86.201 462.957 87.1854 464.83 87.1854ZM465.61 85.3061C464.772 85.3061 464.171 84.9162 464.171 84.1683C464.171 83.4013 464.804 83.0241 465.763 82.8899C466.357 82.8068 467.329 82.6662 467.655 82.4489V83.4908C467.655 84.5199 466.805 85.3061 465.61 85.3061ZM472.471 87H475.194V81.4453C475.194 80.2372 476.077 79.4062 477.278 79.4062C477.655 79.4062 478.173 79.4702 478.429 79.5533V77.1371C478.186 77.0795 477.847 77.0412 477.572 77.0412C476.473 77.0412 475.572 77.6804 475.214 78.8949H475.111V77.1818H472.471V87ZM482.355 87.1854C483.806 87.1854 484.746 86.5526 485.225 85.6385H485.302V87H487.884V80.3778C487.884 78.0384 485.903 77.054 483.717 77.054C481.364 77.054 479.817 78.179 479.44 79.9688L481.959 80.1733C482.144 79.5213 482.726 79.0419 483.704 79.0419C484.631 79.0419 485.161 79.5085 485.161 80.3139V80.3523C485.161 80.9851 484.49 81.0682 482.783 81.2344C480.84 81.4134 479.095 82.0653 479.095 84.2578C479.095 86.201 480.482 87.1854 482.355 87.1854ZM483.135 85.3061C482.298 85.3061 481.697 84.9162 481.697 84.1683C481.697 83.4013 482.33 83.0241 483.288 82.8899C483.883 82.8068 484.854 82.6662 485.18 82.4489V83.4908C485.18 84.5199 484.33 85.3061 483.135 85.3061ZM495.219 77.1818H493.372V74.8295H490.649V77.1818H489.306V79.2273H490.649V84.3409C490.636 86.2649 491.946 87.2173 493.922 87.1342C494.625 87.1087 495.123 86.968 495.398 86.8786L494.97 84.8523C494.836 84.8778 494.548 84.9418 494.292 84.9418C493.749 84.9418 493.372 84.7372 493.372 83.983V79.2273H495.219V77.1818ZM501.324 87.1918C504.302 87.1918 506.156 85.1527 506.156 82.1293C506.156 79.0866 504.302 77.054 501.324 77.054C498.345 77.054 496.491 79.0866 496.491 82.1293C496.491 85.1527 498.345 87.1918 501.324 87.1918ZM501.336 85.0824C499.962 85.0824 499.259 83.8232 499.259 82.1101C499.259 80.397 499.962 79.1314 501.336 79.1314C502.685 79.1314 503.388 80.397 503.388 82.1101C503.388 83.8232 502.685 85.0824 501.336 85.0824ZM507.926 87H510.65V81.4453C510.65 80.2372 511.532 79.4062 512.733 79.4062C513.11 79.4062 513.628 79.4702 513.884 79.5533V77.1371C513.641 77.0795 513.302 77.0412 513.027 77.0412C511.928 77.0412 511.027 77.6804 510.669 78.8949H510.566V77.1818H507.926V87ZM523.461 79.9815C523.218 78.1726 521.76 77.054 519.28 77.054C516.768 77.054 515.113 78.2173 515.119 80.1094C515.113 81.5795 516.04 82.532 517.957 82.9155L519.657 83.2543C520.514 83.4268 520.904 83.7401 520.917 84.2322C520.904 84.8139 520.271 85.2294 519.319 85.2294C518.347 85.2294 517.702 84.8139 517.535 84.0149L514.857 84.1555C515.113 86.0348 516.711 87.1918 519.312 87.1918C521.856 87.1918 523.678 85.8942 523.684 83.9574C523.678 82.5384 522.751 81.6882 520.846 81.2983L519.069 80.9403C518.155 80.7422 517.817 80.429 517.823 79.956C517.817 79.3679 518.481 78.9844 519.325 78.9844C520.271 78.9844 520.834 79.5021 520.968 80.1349L523.461 79.9815Z" fill="white"/>
</svg>
