<svg width="209" height="209" viewBox="0 0 209 209" fill="none" xmlns="http://www.w3.org/2000/svg">
<path d="M170.791 172.767C169.876 172.767 169.133 172.024 169.133 171.108V58.6419C169.133 48.1242 160.577 39.5665 150.057 39.5665H58.9436C48.4243 39.5665 39.8682 48.1242 39.8682 58.6419V171.108C39.8682 172.024 39.1247 172.767 38.2095 172.767C37.2943 172.767 36.5508 172.024 36.5508 171.108V58.6419C36.5508 46.2954 46.5955 36.249 58.9436 36.249H150.057C162.405 36.249 172.45 46.2954 172.45 58.6419V171.108C172.45 172.024 171.707 172.767 170.791 172.767Z" fill="#6D6D6D"/>
<path d="M123.045 55.9141H85.9523C76.0096 55.9141 67.9492 47.8521 67.9492 37.9078C67.9492 27.9652 76.0096 19.9048 85.9523 19.9048H123.045C132.99 19.9048 141.05 27.9652 141.05 37.9078C141.05 47.8521 132.99 55.9141 123.045 55.9141Z" fill="black"/>
<path d="M56.7569 189.111H19.6622C9.71957 189.111 1.65918 181.051 1.65918 171.108C1.65918 161.164 9.71957 153.104 19.6622 153.104H56.7569C66.6995 153.104 74.7616 161.164 74.7616 171.108C74.7616 181.051 66.6995 189.111 56.7569 189.111Z" fill="#12A2CF"/>
<path d="M63.181 101.11C63.181 114.901 52.0007 126.082 38.2093 126.082C24.4179 126.082 13.2393 114.901 13.2393 101.11C13.2393 87.3184 24.4179 76.1382 38.2093 76.1382C52.0007 76.1382 63.181 87.3184 63.181 101.11Z" fill="black"/>
<path d="M56.7564 190.77H19.6618C8.82172 190.77 0 181.95 0 171.108C0 160.265 8.82172 151.445 19.6618 151.445H56.7564C67.5981 151.445 76.4198 160.267 76.4198 171.108C76.4198 181.95 67.5981 190.77 56.7564 190.77ZM19.6618 154.762C10.6505 154.762 3.31746 162.095 3.31746 171.108C3.31746 180.121 10.6505 187.453 19.6618 187.453H56.7564C65.7693 187.453 73.1024 180.121 73.1024 171.108C73.1024 162.095 65.7693 154.762 56.7564 154.762H19.6618Z" fill="#12A2CF"/>
<path d="M189.338 189.111H152.243C142.301 189.111 134.24 181.051 134.24 171.108C134.24 161.164 142.301 153.104 152.243 153.104H189.338C199.281 153.104 207.341 161.164 207.341 171.108C207.341 181.051 199.281 189.111 189.338 189.111Z" fill="#6D6D6D"/>
<path d="M189.337 190.77H152.243C141.402 190.77 132.58 181.95 132.58 171.108C132.58 160.267 141.402 151.445 152.243 151.445H189.337C200.178 151.445 209 160.267 209 171.108C209 181.95 200.178 190.77 189.337 190.77ZM152.243 154.762C143.231 154.762 135.898 162.094 135.898 171.107C135.898 180.119 143.231 187.453 152.243 187.453H189.337C198.349 187.453 205.682 180.119 205.682 171.107C205.682 162.094 198.349 154.762 189.337 154.762H152.243Z" fill="#6D6D6D"/>
<path d="M123.045 57.5729H85.9525C75.1108 57.5729 66.2891 48.7512 66.2891 37.9095C66.2891 27.0678 75.1108 18.2461 85.9541 18.2461H123.047C133.889 18.2461 142.709 27.0678 142.709 37.9079C142.709 48.7496 133.889 57.5729 123.045 57.5729ZM85.9541 21.5636C76.9412 21.5636 69.6081 28.8966 69.6081 37.9079C69.6081 46.9207 76.9412 54.2538 85.9541 54.2538H123.047C132.06 54.2538 139.391 46.9207 139.391 37.9079C139.391 28.8966 132.06 21.5636 123.047 21.5636H85.9541Z" fill="#6D6D6D"/>
<path d="M195.761 101.11C195.761 114.901 184.582 126.082 170.791 126.082C157 126.082 145.819 114.901 145.819 101.11C145.819 87.3184 157 76.1382 170.791 76.1382C184.582 76.1382 195.761 87.3184 195.761 101.11Z" fill="#6D6D6D"/>
<path d="M185.185 91.5007L180.494 86.8096L170.791 96.5109L161.088 86.8096L156.396 91.5007L166.1 101.204L156.396 110.907L161.088 115.599L170.791 105.895L180.494 115.599L185.185 110.907L175.482 101.204L185.185 91.5007Z" fill="#F5F5F5"/>
<path d="M170.791 127.74C156.107 127.74 144.16 115.794 144.16 101.11C144.16 86.4259 156.107 74.4795 170.791 74.4795C185.475 74.4795 197.419 86.4259 197.419 101.11C197.419 115.794 185.475 127.74 170.791 127.74ZM170.791 77.797C157.935 77.797 147.478 88.2547 147.478 101.108C147.478 113.963 157.935 124.421 170.791 124.421C183.646 124.421 194.102 113.963 194.102 101.108C194.102 88.2531 183.646 77.797 170.791 77.797Z" fill="#6D6D6D"/>
<path d="M180.494 117.258C180.055 117.258 179.632 117.083 179.321 116.772L170.791 108.24L162.261 116.77C161.95 117.081 161.527 117.256 161.088 117.256C160.648 117.256 160.226 117.081 159.915 116.77L155.224 112.079C154.576 111.431 154.576 110.382 155.224 109.734L163.754 101.204L155.224 92.6735C154.576 92.0255 154.576 90.9759 155.224 90.3279L159.915 85.6368C160.537 85.0148 161.639 85.0132 162.261 85.6368L170.791 94.1654L179.321 85.6368C179.632 85.3258 180.055 85.1509 180.494 85.1509C180.933 85.1509 181.356 85.3258 181.667 85.6368L186.358 90.3279C187.006 90.9759 187.006 92.0255 186.358 92.6735L177.828 101.204L186.358 109.734C187.006 110.382 187.006 111.431 186.358 112.079L181.667 116.77C181.356 117.083 180.933 117.258 180.494 117.258ZM158.741 110.907L161.086 113.252L169.618 104.722C169.929 104.411 170.35 104.236 170.791 104.236C171.23 104.236 171.653 104.411 171.964 104.722L180.494 113.252L182.838 110.907L174.309 102.376C173.661 101.728 173.661 100.679 174.309 100.031L182.838 91.5007L180.494 89.1535L171.964 97.6837C171.342 98.3057 170.24 98.3073 169.618 97.6837L161.086 89.1535L158.741 91.5007L167.271 100.031C167.919 100.679 167.919 101.728 167.271 102.376L158.741 110.907Z" fill="#6D6D6D"/>
<path d="M38.2089 127.74C23.5249 127.74 11.5801 115.794 11.5801 101.11C11.5801 86.4259 23.5249 74.4795 38.2089 74.4795C52.8928 74.4795 64.8392 86.4243 64.8392 101.108C64.8392 115.792 52.8928 127.74 38.2089 127.74ZM38.2089 77.797C25.3537 77.797 14.8975 88.2547 14.8975 101.108C14.8975 113.963 25.3537 124.421 38.2089 124.421C51.064 124.421 61.5218 113.963 61.5218 101.108C61.5218 88.2531 51.064 77.797 38.2089 77.797Z" fill="#6D6D6D"/>
<path d="M33.1766 115.308L19.9473 102.768L24.512 97.9542L33.3289 106.313L51.826 89.9424L56.2239 94.9121L33.1766 115.308Z" fill="#F5F5F5"/>
<path d="M33.1762 116.966C32.7648 116.966 32.3533 116.814 32.0342 116.513L18.8065 103.973C18.4858 103.67 18.3011 103.252 18.2898 102.813C18.2768 102.374 18.4404 101.948 18.7433 101.628L23.3081 96.8135C23.9382 96.1477 24.9895 96.1202 25.6536 96.7503L33.3674 104.064L50.7274 88.7013C51.4126 88.0938 52.4622 88.1586 53.068 88.8438L57.4659 93.8119C57.7591 94.1423 57.9065 94.5732 57.879 95.0122C57.8531 95.4528 57.6539 95.8626 57.3234 96.1542L34.2745 116.55C33.9602 116.828 33.5682 116.966 33.1762 116.966ZM22.2924 102.707L33.2151 113.059L53.8828 94.7692L51.6831 92.2844L34.4284 107.555C33.7853 108.125 32.8118 108.107 32.1881 107.516L24.5748 100.298L22.2924 102.707Z" fill="black"/>
</svg>
